<svg width="48" height="48" viewBox="0 0 48 48" fill="none" xmlns="http://www.w3.org/2000/svg">
<circle cx="33.5" cy="32.5" r="13.5" fill="#EFEBEA" fill-opacity="0.43"/>
<path d="M31.7449 16.2128H33.2698V18.6207L30.6201 19.6652C31.5031 17.7378 31.9852 15.6505 32.145 13.9648C32.0663 14.606 31.9859 15.4094 31.7449 16.2128Z" fill="white"/>
<path d="M34.7164 12.1175V16.2126H33.271H31.7461C31.9068 15.4092 32.0675 14.6058 32.0675 13.8835C32.0675 13.7236 32.0675 13.5629 32.0675 13.4818C32.0675 13.4014 32.0675 13.3219 32.0675 13.2407C32.0675 13.1604 32.0675 13.0808 32.0675 12.9997C32.0675 12.9194 32.0675 12.8398 32.0675 12.7587C32.0675 12.6783 32.0675 12.5988 32.0675 12.5176C32.0675 12.4373 32.0675 12.357 32.0675 12.357C32.0675 12.2766 32.0675 12.1159 32.0675 12.0364H33.4325H34.7172V12.1175H34.7164Z" fill="#F2B200"/>
<path d="M16.0885 16.2128H13.1978V12.1177H14.4824H15.8475C15.7671 12.5194 15.7671 12.9211 15.7671 13.2417C15.7671 14.1246 15.8475 15.1683 16.0885 16.2128Z" fill="#F2B200"/>
<path d="M32.0664 12.1178C32.0664 12.1989 32.0664 12.3588 32.0664 12.4392C31.6646 8.34406 28.2123 5.13193 23.9565 5.13193C19.8622 5.13193 16.409 8.18337 15.8474 12.117H14.4824C15.044 6.65765 19.0588 2.32153 23.9565 2.32153C28.8542 2.32153 32.869 6.57731 33.4314 12.117H32.0664V12.1178Z" fill="#F2B200"/>
<path d="M30.621 19.6653C29.256 22.6356 27.008 25.2057 23.9565 25.2057C19.7811 25.2057 17.0518 20.3876 16.168 16.2933C15.927 15.2488 15.8467 14.2059 15.8467 13.4025C15.8467 13.0008 15.8467 12.5999 15.927 12.2785H15.8467C16.4091 8.3449 19.8614 5.29346 23.9557 5.29346C28.2115 5.29346 31.6639 8.50478 32.0656 12.5999C32.0656 12.6802 32.0656 12.7598 32.0656 12.7598C32.0656 12.8409 32.0656 12.9204 32.0656 13.0008C32.0656 13.0819 32.0656 13.1615 32.0656 13.2418C32.0656 13.323 32.0656 13.4025 32.0656 13.4829C32.0656 13.564 32.0656 13.6435 32.0656 13.7247C32.0656 13.8846 32.0656 13.9657 32.0656 14.1256C31.986 15.6505 31.5048 17.7378 30.621 19.6653Z" fill="white"/>
<path d="M18.9794 26.0876L23.7968 32.5915L21.2274 35.2412L17.1323 27.7741L18.9794 26.0876Z" fill="white"/>
<path d="M30.4601 27.7741L26.2043 34.8395L23.7964 32.5915L28.6138 26.0876L30.4601 27.7741Z" fill="white"/>
<path d="M30.4604 27.7742C41.5406 34.1173 40.2559 31.1462 40.2559 43.752C29.2561 46.2411 18.2563 46.3206 7.25646 43.752C7.25646 31.0666 5.97177 34.1173 17.0519 27.7742L21.147 35.2413L23.7156 32.6727L26.1243 34.9207L30.4604 27.7742Z" fill="#F2B200"/>
<path d="M30.4603 38.2926H26.6866C26.5259 38.2926 26.3652 38.1319 26.3652 37.9712C26.3652 37.8113 26.5259 37.6506 26.6866 37.6506H30.4603C30.621 37.6506 30.7817 37.8113 30.7817 37.9712C30.7817 38.1319 30.7014 38.2926 30.4603 38.2926Z" fill="#E04C00"/>
<path d="M30.4603 40.621H26.6866C26.5259 40.621 26.3652 40.4603 26.3652 40.3004C26.3652 40.1397 26.5259 39.979 26.6866 39.979H30.4603C30.621 39.979 30.7817 40.1397 30.7817 40.3004C30.7817 40.4595 30.7014 40.621 30.4603 40.621Z" fill="#E04C00"/>
<path d="M23.7162 46.0002C18.1765 46.0002 12.6361 45.3574 7.25707 44.0735C7.09639 44.0735 7.01605 43.9129 7.01605 43.7522C7.01605 42.3871 7.01605 41.1836 7.01605 40.1391C6.93571 32.9934 6.9357 32.8319 12.7172 29.7813C13.9215 29.1385 15.3669 28.4162 17.0525 27.3726C17.2132 27.2922 17.4542 27.3726 17.5338 27.5333C17.6141 27.694 17.5338 27.935 17.3731 28.0145C15.6064 28.9778 14.161 29.7813 13.037 30.4232C10.3069 31.8678 8.94269 32.5909 8.29994 33.7952C7.6572 34.9996 7.6572 36.686 7.73754 40.1383C7.73754 41.1017 7.73754 42.2256 7.73754 43.4308C18.3356 45.8387 29.1755 45.8387 40.0147 43.4308C40.0147 42.2256 40.0147 41.1828 40.0147 40.2187C40.095 36.7663 40.095 34.9996 39.4531 33.796C38.8103 32.5909 37.4461 31.8686 34.6357 30.424C33.5117 29.7813 32.0663 29.059 30.3807 28.0949C30.22 28.0153 30.1397 27.7743 30.22 27.6136C30.3003 27.4537 30.5414 27.3726 30.7013 27.4537C32.3877 28.417 33.833 29.2197 34.957 29.7821C40.7385 32.913 40.8181 32.9934 40.7385 40.2195C40.7385 41.2639 40.7385 42.3879 40.7385 43.7522C40.7385 43.9129 40.6582 44.0735 40.4172 44.0735C34.7964 45.3582 29.2559 46.0002 23.7162 46.0002Z" fill="#E04C00"/>
<path d="M32.066 13.0006C31.9053 13.0006 31.7446 12.8408 31.7446 12.6801C31.7446 12.5997 31.7446 12.5194 31.7446 12.5194C31.7446 12.3587 31.9053 12.1177 32.066 12.1177C32.2267 12.1177 32.4669 12.2784 32.4669 12.439C32.4669 12.5194 32.4669 12.5997 32.4669 12.6801C32.4677 12.8408 32.307 13.0006 32.066 13.0006Z" fill="#E04C00"/>
<path d="M23.9563 25.5259C19.7809 25.5259 16.8106 20.8692 15.7669 16.2929C15.5259 15.2484 15.3652 14.2056 15.3652 13.3226C15.3652 12.9209 15.3652 12.5192 15.4456 12.1175C15.7669 10.1105 16.7303 8.26338 18.256 6.89835C19.7809 5.53332 21.7887 4.81104 23.876 4.81104C26.0437 4.81104 28.0514 5.61366 29.6567 7.05903C31.1824 8.50361 32.2261 10.431 32.3868 12.5184C32.3868 12.5995 32.3868 12.6791 32.3064 12.7594C32.3868 12.8405 32.3868 12.9201 32.3868 13.0004C32.3868 13.0816 32.3868 13.1611 32.3868 13.2415C32.3868 13.3226 32.3868 13.4021 32.3868 13.4825C32.3868 13.5636 32.3868 13.6432 32.3868 13.7243C32.3868 13.8842 32.3868 13.9653 32.3868 14.1252C32.3064 15.9715 31.7448 18.14 30.8618 19.9863C29.9789 21.9129 27.7301 25.5259 23.9563 25.5259ZM23.9563 5.45376C20.1023 5.45376 16.7303 8.34452 16.249 12.1175C16.1687 12.5192 16.1687 12.8405 16.1687 13.2415C16.1687 14.1244 16.3293 15.0885 16.49 16.0518C17.4533 20.3872 20.1834 24.7225 23.9571 24.7225C27.3291 24.7225 29.4173 21.4308 30.3002 19.4239C31.1029 17.6571 31.6653 15.5698 31.7456 13.8039C31.7456 13.6432 31.7456 13.4825 31.7456 13.4021C31.7456 13.3218 31.7456 13.2415 31.7456 13.2415C31.7456 13.1611 31.7456 13.0816 31.7456 13.0816C31.7456 13.0004 31.7456 12.9209 31.7456 12.9209C31.7456 12.8405 31.7456 12.7602 31.826 12.6799C31.7456 12.5995 31.7456 12.5995 31.7456 12.5192C31.3431 8.50442 27.9711 5.45376 23.9563 5.45376Z" fill="#E04C00"/>
<path d="M26.2047 35.2413C26.1244 35.2413 26.044 35.2413 25.9637 35.1618L23.555 32.9138C23.3943 32.7531 23.3943 32.5924 23.4746 32.4325L28.292 25.8484C28.3724 25.768 28.4527 25.6885 28.5331 25.6885C28.6134 25.6885 28.7741 25.6885 28.7741 25.7688L30.6212 27.4552C30.7819 27.5356 30.7819 27.7758 30.7015 27.9365L26.3662 35.0019C26.4465 35.161 26.3662 35.161 26.2047 35.2413ZM24.2781 32.5916L26.1252 34.278L30.0596 27.8545L28.6945 26.6502L24.2781 32.5916Z" fill="#E04C00"/>
<path d="M21.2267 35.5626C21.1464 35.5626 21.1464 35.5626 21.2267 35.5626C21.0661 35.5626 20.9857 35.4815 20.9054 35.4019L16.8111 27.9348C16.7307 27.7741 16.7307 27.6135 16.8914 27.5331L18.7377 25.8467C18.8181 25.7664 18.8984 25.7664 18.9787 25.7664C19.0591 25.7664 19.1394 25.8467 19.2198 25.927L24.0372 32.5104C24.1175 32.6711 24.1175 32.831 24.0372 32.9916L21.4678 35.561C21.3874 35.5626 21.3071 35.5626 21.2267 35.5626ZM17.5334 27.8545L21.2267 34.6796L23.2337 32.6727L18.818 26.6509L17.5334 27.8545Z" fill="#E04C00"/>
<path d="M21.5474 13.6433C21.226 13.6433 20.985 13.6433 20.6644 13.563C19.2994 13.3219 18.2557 12.5997 17.6941 11.3945C17.6138 11.2338 17.6941 10.9928 17.8548 10.9133C18.0155 10.8329 18.2565 10.9133 18.3361 11.0739C18.9788 12.2783 20.0225 12.68 20.8251 12.8407C22.0294 13.0817 23.3945 12.68 24.1168 12.0373C25.7228 10.5115 26.1237 10.3509 26.4451 10.5115C26.7657 10.6722 26.6861 11.074 26.6058 11.3945C26.6058 11.5552 26.5255 11.7962 26.5255 11.8758C26.6058 11.8758 26.6861 11.8758 27.0075 11.7954C27.9708 11.3937 29.3359 11.0731 30.2188 11.4749C30.5402 11.6347 30.7812 11.9561 30.9419 12.357C31.0223 12.5177 30.8616 12.7588 30.7009 12.8391C30.5402 12.9194 30.3 12.758 30.2196 12.5981C30.1393 12.4374 30.0589 12.2767 29.8983 12.1964C29.417 11.9553 28.4529 12.0357 27.2485 12.5169C26.9272 12.6776 26.3656 12.758 26.0442 12.5169C25.7228 12.2759 25.8032 11.8742 25.8032 11.4741C25.5621 11.6339 25.1604 12.0357 24.5185 12.5981C23.8765 13.2416 22.6722 13.6433 21.5474 13.6433Z" fill="#E04C00"/>
<path d="M25.9642 16.3725C25.8035 16.3725 25.7232 16.2922 25.6428 16.1315C25.5625 15.9716 25.6428 15.7298 25.8035 15.6502C25.9642 15.5699 27.6498 14.8476 28.5336 15.7306C28.6943 15.8912 28.6943 16.1323 28.5336 16.2126C28.3729 16.3725 28.1327 16.3725 28.0523 16.2126C27.5711 15.7305 26.4463 16.1315 26.1257 16.293C26.1249 16.3725 26.0446 16.3725 25.9642 16.3725Z" fill="#E04C00"/>
<path d="M21.8688 16.3727C21.7884 16.3727 21.7884 16.3727 21.7081 16.3727C21.3875 16.2128 20.1832 15.8915 19.7815 16.2924C19.6208 16.4531 19.3805 16.4531 19.3002 16.2924C19.1395 16.1317 19.1395 15.8907 19.3002 15.8111C20.1832 14.9281 21.8696 15.6504 22.0303 15.7308C22.191 15.8111 22.2713 16.0514 22.191 16.212C22.1902 16.2932 22.0295 16.3727 21.8688 16.3727Z" fill="#E04C00"/>
<path d="M34.716 16.5331H31.7457C31.6654 16.5331 31.5047 16.4528 31.4243 16.3724C31.4243 16.3724 31.4243 16.2125 31.4243 16.1314C31.585 15.3288 31.7457 14.6057 31.7457 13.8834C31.7457 13.7235 31.7457 13.6424 31.7457 13.4817C31.7457 13.4014 31.7457 13.3218 31.7457 13.3218C31.7457 13.2407 31.7457 13.1611 31.7457 13.1611C31.7457 13.0808 31.7457 13.0004 31.7457 13.0004C31.7457 12.9201 31.7457 12.8406 31.7457 12.7594C31.7457 12.6791 31.7457 12.5995 31.7457 12.5995C31.7457 12.5184 31.7457 12.3577 31.7457 12.2781C31.7457 12.1978 31.7457 12.0371 31.826 11.9576C31.9064 11.8764 31.9867 11.7969 32.0671 11.7969H34.7168C34.8775 11.7969 35.0381 11.9576 35.0381 12.1175V16.2125C35.0374 16.3724 34.8767 16.5331 34.716 16.5331ZM32.227 15.8108H34.3946V12.4388H32.468C32.468 12.5192 32.468 12.5192 32.468 12.5995C32.468 12.6799 32.468 12.7594 32.468 12.8405C32.468 12.9209 32.468 13.0004 32.468 13.0816C32.468 13.1619 32.468 13.2415 32.468 13.3226C32.468 13.4029 32.468 13.4825 32.468 13.5636C32.468 13.7243 32.468 13.8842 32.468 13.9653C32.3868 14.5262 32.3073 15.1681 32.227 15.8108Z" fill="#E04C00"/>
<path d="M16.1686 16.5331H13.1983C13.0376 16.5331 12.877 16.3724 12.877 16.2125V12.1175C12.877 11.9576 13.0376 11.7969 13.1983 11.7969H15.848C15.9284 11.7969 16.0891 11.8772 16.0891 11.9576C16.1694 12.0379 16.1694 12.1175 16.1694 12.2781C16.1694 12.5192 16.1694 12.9209 16.1694 13.3226C16.1694 14.1252 16.3301 15.1689 16.4908 16.1322C16.4908 16.2134 16.4908 16.3732 16.4104 16.4536C16.4096 16.5331 16.249 16.5331 16.1686 16.5331ZM13.5992 15.8108H15.7677C15.607 14.9279 15.5267 14.0441 15.5267 13.2415C15.5267 13.0004 15.5267 12.6799 15.5267 12.4388H13.6L13.5992 15.8108Z" fill="#E04C00"/>
<path d="M14.4821 12.5185C14.2411 12.5185 14.0812 12.3578 14.1607 12.1168C14.7231 6.33611 18.9781 2 23.9562 2C28.9343 2 33.1901 6.33611 33.7517 12.1168C33.7517 12.2775 33.591 12.5185 33.4303 12.5185C33.2696 12.5185 33.0286 12.3578 33.0286 12.1979C32.4662 6.81816 28.6129 2.72386 23.9554 2.72386C19.2987 2.72386 15.4446 6.81896 14.883 12.1979C14.8035 12.3578 14.6428 12.5185 14.4821 12.5185Z" fill="#E04C00"/>
<path d="M24.9208 22.1541C24.7602 22.1541 24.5995 22.0737 24.5995 21.9131C24.5191 21.7524 24.5995 21.5113 24.8405 21.4318L33.0299 18.3008V16.1324C33.0299 15.9725 33.1906 15.8118 33.3513 15.8118C33.5119 15.8118 33.6726 15.9725 33.6726 16.1324V18.541C33.6726 18.7017 33.5923 18.8616 33.4316 18.8616L25.0815 22.0737C25.0012 22.1541 24.9208 22.1541 24.9208 22.1541Z" fill="#E04C00"/>
</svg>
