<svg width="48" height="48" viewBox="0 0 48 48" fill="none" xmlns="http://www.w3.org/2000/svg">
<circle cx="28" cy="24" r="17" fill="#EFEBEA" fill-opacity="0.43"/>
<path d="M26.9615 24.9771C28.9197 24.9771 30.4706 26.528 30.4706 28.4869C30.4706 30.4459 28.9197 31.9968 26.9615 31.9968C25.0026 31.9968 23.4517 30.4459 23.4517 28.4869C23.4508 26.528 25.0026 24.9771 26.9615 24.9771Z" fill="white"/>
<path d="M29.4087 16.733H26.9604H24.5934C24.838 14.8553 24.6747 12.5704 24.2666 10.6927C25.572 10.448 25.8996 11.0195 26.8791 10.9374C27.5318 10.9374 27.9407 10.6106 28.7568 10.6106C29.0828 10.6106 29.4095 10.6106 29.7363 10.6927C29.2461 12.5696 29.0828 14.8553 29.4087 16.733Z" fill="white"/>
<path d="M24.5942 16.7334H26.9612H29.4095H30.1444C30.5524 16.7334 30.8784 17.0602 30.8784 17.4682C30.8784 17.6316 30.7963 17.8763 30.6337 17.9584C30.4703 18.1217 30.3077 18.203 30.1444 18.203H29.6542H26.9604H24.2666H23.7765C23.3684 18.203 23.0425 17.8771 23.0425 17.4682C23.0425 17.3048 23.1238 17.0602 23.2871 16.9789C23.4505 16.8155 23.6139 16.7334 23.7773 16.7334H24.5942Z" fill="white"/>
<path d="M24.92 33.1398C24.594 33.0577 24.2664 32.9764 23.8584 32.8951C23.7763 32.8951 23.6137 32.8951 23.5324 32.813H23.4503C23.2057 32.7309 22.8789 32.7309 22.6342 32.6497C22.5529 32.6497 22.3896 32.6497 22.3083 32.5676C22.2262 32.5676 22.2262 32.5676 22.1449 32.5676C22.0636 32.5676 21.9002 32.5676 21.819 32.5676C21.5743 32.5676 21.3288 32.5676 21.0841 32.4855C20.8395 32.4855 20.6761 32.4855 20.5127 32.4855C19.9413 31.0979 19.5332 29.547 19.5332 28.2408C19.5332 24.5675 23.0431 22.6085 24.2673 18.0378H26.961H29.6548C30.879 22.5272 34.3889 24.5683 34.3889 28.2408C34.3889 30.3631 33.4915 33.1382 32.0219 34.7712C31.287 35.0972 30.6343 35.4239 29.9808 35.832H29.0013V35.7507C29.0013 35.6686 29.0013 35.6686 29.0013 35.5873V35.506V35.4239V35.3418C29.0013 35.3418 29.0013 35.2605 28.92 35.2605C28.92 35.2605 28.92 35.1784 28.8387 35.1784C28.8387 35.1784 28.8387 35.0963 28.7566 35.0963C28.7566 35.0963 28.7566 35.0151 28.6745 35.0151L28.5924 34.933L28.5103 34.8517L28.4283 34.7696L28.347 34.6875L28.2649 34.6054L28.1828 34.5241C27.7747 34.1973 27.2033 33.8706 26.5498 33.6267C26.1441 33.4658 25.4914 33.3032 24.92 33.1398ZM30.4701 28.487C30.4701 26.5281 28.9192 24.9772 26.961 24.9772C25.0021 24.9772 23.4512 26.5281 23.4512 28.487C23.4512 30.446 25.0021 31.9969 26.961 31.9969C28.9192 31.9969 30.4701 30.446 30.4701 28.487Z" fill="white"/>
<path d="M13.1649 41.9552C13.247 42.3633 12.9203 42.7713 12.5122 42.7713C12.1042 42.7713 11.6961 42.5267 11.6961 42.1186C11.6148 41.7106 11.9408 41.3025 12.3496 41.3025C12.7569 41.2204 13.0836 41.5472 13.1649 41.9552Z" fill="white"/>
<path d="M11.8598 35.5879C12.8401 36.5674 15.125 40.4041 15.6965 41.7916C16.0232 42.4443 16.1045 43.0158 15.8599 43.4238C15.5331 44.1586 10.5544 46.1997 9.41152 46.8524C8.92137 47.1792 8.67671 47.2605 8.43204 46.7711C7.69723 44.7309 8.34994 41.3836 7.77932 38.9352C7.61593 38.2004 7.28917 37.4656 7.53465 36.9763C7.77932 36.4048 9.5749 35.6708 10.1463 35.3441C10.6357 35.0986 11.125 34.8531 11.8598 35.5879ZM12.5125 42.7711C12.9206 42.689 13.2474 42.363 13.1653 41.955C13.0832 41.5469 12.7572 41.221 12.3492 41.3023C11.9403 41.3844 11.6143 41.7111 11.6956 42.1184C11.6964 42.5264 12.1045 42.7711 12.5125 42.7711Z" fill="#F2B200"/>
<path d="M29.0005 36.5677C29.246 36.4043 29.6541 36.1597 30.0621 35.915C30.6335 35.5882 31.3684 35.1802 32.0211 34.8534C33.3265 34.282 34.7962 33.7926 35.8577 33.6292C36.8372 33.4659 38.3069 33.5472 38.3881 34.8534C38.5507 36.8945 29.572 41.9545 26.879 42.2C22.2262 42.5259 21.328 39.5062 15.6145 41.7098C15.0431 40.3223 12.7573 36.4856 11.7778 35.5061C13.41 34.6079 16.2672 32.9757 18.0628 32.6489C18.5529 32.5669 19.3691 32.4856 20.3485 32.5669C20.5119 32.5669 20.7566 32.5669 20.92 32.5669C21.1646 32.5669 21.4093 32.5669 21.6548 32.6489C21.7361 32.6489 21.8995 32.6489 21.9807 32.6489C22.0628 32.6489 22.0628 32.6489 22.1441 32.6489C22.2262 32.6489 22.3888 32.6489 22.4709 32.7302C22.7156 32.7302 23.0423 32.8123 23.287 32.8936H23.3691C23.4512 32.8936 23.6146 32.8936 23.695 32.9749C24.6745 33.1383 25.654 33.383 26.4709 33.7097C27.1236 33.9544 27.6951 34.2812 28.1031 34.6071L28.1844 34.6892L28.2665 34.7713L28.3486 34.8526L28.4299 34.9347L28.512 35.0168L28.5941 35.0981L28.6762 35.1802C28.6762 35.1802 28.6762 35.2623 28.7583 35.2623C28.7583 35.2623 28.7583 35.3436 28.8404 35.3436C28.8404 35.3436 28.8404 35.4256 28.9217 35.4256V35.5078V35.589V35.6711C28.9217 35.7532 28.9217 35.7532 28.9217 35.8345C28.9217 35.9979 28.9217 36.0792 28.9217 36.2426C28.9217 36.2426 28.9217 36.2426 28.9217 36.3247C28.9217 36.3247 28.9217 36.3247 28.9217 36.4068C29.0826 36.4051 29.0826 36.4864 29.0005 36.5677C29.0826 36.5677 29.0826 36.5677 29.0005 36.5677Z" fill="#F2B200"/>
<path d="M26.8791 37.8737C25.4095 37.8737 23.6952 37.4657 22.1442 37.0576C22.063 37.0576 21.9809 36.9755 21.8996 36.9755C21.7362 36.8942 21.5736 36.7308 21.6549 36.5675C21.7362 36.4041 21.8996 36.2407 22.063 36.3228C22.1442 36.3228 22.2263 36.3228 22.3076 36.4049C27.3684 37.7924 28.4292 37.0576 28.6739 36.487C28.756 36.3236 28.9186 36.1602 29.0819 36.2415C29.2453 36.3236 29.4079 36.487 29.3274 36.6496V36.7308C29.0828 37.547 28.1033 37.8737 26.8791 37.8737Z" fill="#E04C00"/>
<path d="M29.0827 36.7311C28.8381 36.649 28.6747 36.4865 28.7568 36.3231C28.7568 36.3231 28.7568 36.3231 28.7568 36.241C28.7568 36.0776 28.9194 35.915 29.0827 35.915C29.2461 35.915 29.4087 36.0784 29.4087 36.241V36.3231C29.4087 36.3231 29.4087 36.3231 29.4087 36.4052V36.4873C29.4087 36.5678 29.2461 36.7311 29.0827 36.7311Z" fill="#E04C00"/>
<path d="M8.83956 47.424C8.75828 47.424 8.67618 47.424 8.5949 47.424C8.26894 47.3419 8.18685 46.9338 8.10475 46.8525C7.6967 45.7097 7.69671 44.3221 7.69671 42.7712C7.69671 41.4658 7.69671 40.0774 7.36994 38.9345C7.36994 38.7712 7.28866 38.6086 7.20657 38.4444C7.04318 37.7917 6.87979 37.2202 7.12528 36.7309C7.36994 36.2408 8.34942 35.6693 9.57358 35.0979C9.73696 35.0166 9.81826 34.9345 9.98164 34.9345C10.3897 34.7711 11.1245 34.3631 12.0227 35.2613C12.1861 35.4247 12.1861 35.6693 12.0227 35.7514C11.8593 35.9148 11.6147 35.9148 11.5326 35.7514C10.9611 35.18 10.6352 35.3434 10.3084 35.5067C10.2271 35.588 10.0637 35.588 9.90035 35.6701C9.4102 35.9148 7.94136 36.5675 7.77798 36.8943C7.61459 37.139 7.77799 37.6291 7.94138 38.1184C8.02347 38.2818 8.02347 38.4444 8.10475 38.6086C8.43152 39.8327 8.43152 41.2203 8.43152 42.6078C8.43152 44.0775 8.43153 45.3829 8.7583 46.4445C8.7583 46.5258 8.7583 46.5258 8.7583 46.5258C8.83958 46.5258 9.00295 46.3624 9.16633 46.3624C9.57439 46.1177 10.3905 45.7909 11.2887 45.3016C12.6762 44.6481 15.2066 43.506 15.4521 43.098C15.5334 42.8533 15.5334 42.4444 15.2075 41.7917C15.1254 41.6283 15.2074 41.3837 15.3708 41.3016C15.5342 41.2203 15.7789 41.3016 15.861 41.4649C16.1869 42.2811 16.269 42.8525 16.0244 43.3426C15.7797 43.8328 14.4734 44.5668 11.4537 45.9543C10.5555 46.3624 9.74022 46.7704 9.41345 46.9338C9.41102 47.2606 9.08423 47.424 8.83956 47.424Z" fill="#E04C00"/>
<path d="M12.4317 43.0982C11.8602 43.0982 11.3709 42.6901 11.2888 42.1187C11.2067 41.5472 11.6969 40.9758 12.2683 40.8945C12.921 40.8124 13.4112 41.3026 13.4925 41.874C13.5738 42.4454 13.0844 43.0169 12.513 43.0982C12.513 43.0982 12.513 43.0982 12.4317 43.0982ZM12.4317 41.6285C12.187 41.6285 12.0236 41.8732 12.0236 42.0366C12.0236 42.2812 12.2683 42.3633 12.4317 42.3633C12.5951 42.3633 12.7585 42.1187 12.7585 41.9553C12.7576 41.7919 12.5943 41.6285 12.4317 41.6285Z" fill="#E04C00"/>
<path d="M21.0835 32.9765C20.8388 32.9765 20.6754 32.9765 20.4308 32.9765C20.2674 32.9765 20.104 32.8131 20.104 32.5685C20.104 32.4051 20.2674 32.2417 20.5121 32.2417C20.7567 32.2417 20.9201 32.2417 21.1648 32.2417C21.3282 32.2417 21.4915 32.4051 21.4915 32.6497C21.4103 32.8131 21.2469 32.9765 21.0835 32.9765Z" fill="#E04C00"/>
<path d="M22.3086 33.0576C22.2265 33.0576 22.2265 33.0576 22.3086 33.0576H22.2265H22.1444C22.0631 33.0576 21.8998 33.0576 21.8185 33.0576C21.6551 33.0576 21.4917 32.8942 21.4917 32.6495C21.4917 32.4861 21.6551 32.3228 21.8998 32.3228C21.9819 32.3228 22.1444 32.3228 22.2265 32.3228H22.3086H22.3899C22.5533 32.3228 22.7167 32.4861 22.7167 32.7308C22.6346 32.9763 22.4712 33.0576 22.3086 33.0576Z" fill="#E04C00"/>
<path d="M23.4497 33.221C23.123 33.1397 22.8783 33.1397 22.5523 33.0576C22.389 33.0576 22.2256 32.8129 22.2256 32.6495C22.2256 32.4861 22.4702 32.3228 22.6336 32.3228C22.9604 32.3228 23.2051 32.4049 23.5318 32.4861C23.6944 32.4861 23.8578 32.7308 23.8578 32.895C23.7765 33.1397 23.6131 33.221 23.4497 33.221Z" fill="#E04C00"/>
<path d="M28.5926 35.2621C28.5105 35.2621 28.4292 35.18 28.3479 35.0987C28.3479 35.0987 28.348 35.0987 28.2659 35.0175C28.2659 35.0175 28.2658 35.0175 28.1838 34.9354C28.1838 34.9354 28.1025 34.9354 28.1025 34.8533C28.1025 34.8533 28.0204 34.8533 28.0204 34.772C27.6123 34.4452 27.1222 34.2005 26.4703 33.9559C25.9809 33.7925 25.4087 33.5478 24.756 33.4657C24.43 33.3844 24.1033 33.3023 23.6944 33.2211C23.6131 33.2211 23.4497 33.2211 23.3684 33.1398C23.2051 33.1398 23.0425 32.8951 23.0425 32.7317C23.0425 32.5683 23.2871 32.4058 23.4505 32.4058C23.5326 32.4058 23.6952 32.4058 23.7765 32.487C24.1032 32.5691 24.5113 32.6504 24.8381 32.7317C25.4916 32.8951 26.1435 33.0585 26.6337 33.3031C27.3685 33.5478 27.9407 33.8746 28.3479 34.2005L28.4292 34.2826L28.5113 34.3639L28.5934 34.446L28.6755 34.5281C28.8389 34.6915 28.7576 34.9362 28.6755 35.0183C28.7568 35.2621 28.6747 35.2621 28.5926 35.2621Z" fill="#E04C00"/>
<path d="M29.0007 35.8334C28.8382 35.8334 28.7561 35.7521 28.6748 35.5888C28.6748 35.5888 28.6748 35.5888 28.6748 35.5075V35.4254V35.3433C28.6748 35.3433 28.6748 35.262 28.5927 35.262C28.5927 35.262 28.5927 35.262 28.5927 35.1799C28.5927 35.1799 28.5927 35.1799 28.5106 35.0978C28.348 34.9344 28.348 34.6897 28.5106 34.6076C28.674 34.4443 28.9186 34.4443 29.0007 34.6076L29.0829 34.6897L29.1649 34.7718L29.247 34.8531L29.3291 34.9352L29.4104 35.0173C29.4104 35.0173 29.4104 35.0986 29.4925 35.0986C29.5746 35.262 29.4925 35.5067 29.33 35.5888C29.0828 35.8334 29.0007 35.8334 29.0007 35.8334Z" fill="#E04C00"/>
<path d="M29.0012 35.915C28.8387 35.915 28.6753 35.8329 28.6753 35.6703C28.5932 35.5069 28.6753 35.2623 28.8387 35.1802C29.0013 35.0981 29.2467 35.1802 29.3288 35.3436V35.4256C29.4101 35.589 29.3288 35.8337 29.0833 35.9158C29.0833 35.9158 29.0833 35.915 29.0012 35.915Z" fill="#E04C00"/>
<path d="M29.0824 36.0781C28.919 36.0781 28.7564 35.9968 28.7564 35.7522C28.6743 35.5888 28.7564 35.3441 29.0011 35.262C29.1644 35.1799 29.4091 35.262 29.4912 35.5067V35.588C29.4904 35.8334 29.3278 35.9968 29.0824 36.0781Z" fill="#E04C00"/>
<path d="M26.225 42.6087C24.6741 42.6087 23.6133 42.2819 22.4705 41.8739C20.6749 41.3024 19.124 40.8123 15.7774 42.0373C15.6141 42.1193 15.3694 42.0372 15.2873 41.8739C14.6346 40.4042 12.4301 36.6497 11.5327 35.8336C11.4506 35.7523 11.3694 35.6702 11.4506 35.5076C11.4506 35.4255 11.5327 35.2629 11.614 35.2629C14.4712 33.6307 16.5935 32.6513 17.9811 32.3245C18.5525 32.2424 19.3686 32.1611 20.3481 32.2424C20.5115 32.2424 20.6749 32.4058 20.6749 32.6504C20.6749 32.8138 20.5115 32.9764 20.266 32.9764C19.3686 32.9764 18.5525 32.9764 18.0624 33.0585C16.8382 33.3032 14.8784 34.2014 12.2667 35.6702C13.3275 36.9756 15.0418 39.9149 15.6945 41.3024C19.0411 40.0783 20.7554 40.6497 22.5518 41.2211C23.7759 41.6292 24.9188 42.0372 26.7144 41.8739C27.9393 41.7918 30.7144 40.5676 33.4074 38.9354C36.5905 36.9764 37.978 35.5076 37.8968 34.9362C37.8968 34.6915 37.8147 34.446 37.57 34.3647C37.244 34.1201 36.5084 33.9567 35.6923 34.1201C34.7128 34.2835 33.3253 34.6915 31.9378 35.2629C31.2037 35.5889 30.5502 35.9157 29.9788 36.2424C29.5707 36.4871 29.2448 36.7326 28.9993 36.9764C28.8367 37.0585 28.6733 37.0585 28.5912 36.9764C28.4279 36.8952 28.4279 36.7318 28.4279 36.5684V36.4871V36.405C28.4279 36.405 28.4279 36.405 28.4279 36.3229C28.4279 36.2416 28.4279 36.1595 28.4279 35.997C28.4279 35.8336 28.5099 35.5881 28.7546 35.5881C28.9172 35.5881 29.1627 35.6702 29.1627 35.9149V35.997C29.3261 35.9149 29.4073 35.8336 29.5707 35.7523C30.1422 35.4255 30.8762 35.0175 31.6118 34.6907C33.0814 34.038 34.469 33.6299 35.5297 33.4665C36.1004 33.3853 37.2432 33.3032 37.9781 33.8746C38.3048 34.1201 38.5495 34.5281 38.5495 35.0175C38.6316 36.4871 35.5297 38.6086 33.6529 39.7515C31.3663 41.139 28.1832 42.69 26.6323 42.7713C26.7152 42.6087 26.4705 42.6087 26.225 42.6087Z" fill="#E04C00"/>
<path d="M30.0623 36.323H29.0829C28.9195 36.323 28.7569 36.1597 28.7569 35.9971V35.915V35.8329V35.7516V35.6695C28.7569 35.6695 28.7569 35.6695 28.7569 35.5874C28.7569 35.5874 28.7569 35.5061 28.6748 35.5061C28.6748 35.5061 28.6748 35.424 28.5927 35.424C28.5927 35.424 28.5927 35.3419 28.5106 35.3419C28.5106 35.3419 28.5106 35.3419 28.4285 35.2606L28.3472 35.1785C28.3472 35.1785 28.3472 35.1785 28.2651 35.0964L28.183 35.0152C28.183 35.0152 28.183 35.0152 28.1017 34.9331L28.0196 34.851C27.6116 34.525 27.1214 34.2795 26.4695 34.0349C25.7347 33.7081 24.7552 33.4634 23.7757 33.3L23.4498 33.2179H23.3677C23.0417 33.1367 22.7963 33.1367 22.5516 33.1367C22.4695 33.1367 22.3069 33.1367 22.2248 33.0546H22.0614C21.9793 33.0546 21.8168 33.0546 21.7347 33.0546C21.49 33.0546 21.2453 33.0546 21.0819 32.9725C20.8373 32.9725 20.6739 32.9725 20.5105 32.9725C20.3471 32.9725 20.2658 32.8912 20.1846 32.7278C19.531 31.3403 19.2051 29.7081 19.2051 28.3205C19.2051 26.2794 20.2658 24.6472 21.4087 23.015C22.3882 21.5454 23.3677 20.0766 23.9391 18.0363C24.0204 17.8729 24.1838 17.7104 24.4293 17.7916C24.5927 17.8737 24.7552 18.0363 24.6739 18.2818C24.1033 20.4042 22.9605 22.0364 21.9802 23.4247C20.8373 25.0569 19.8578 26.5266 19.8578 28.3221C19.8578 29.5463 20.1846 30.9338 20.6739 32.2401C20.7552 32.2401 20.9186 32.2401 21.0819 32.2401C21.3266 32.2401 21.5721 32.2401 21.8168 32.3214C21.8981 32.3214 22.0614 32.3214 22.1427 32.3214H22.3061C22.3874 32.3214 22.5508 32.3214 22.6321 32.4035C22.8767 32.4035 23.2035 32.4848 23.5303 32.5669H23.6124L23.9383 32.649C24.9999 32.8123 25.9794 33.1391 26.7955 33.3838C27.5295 33.6284 28.1017 33.9552 28.509 34.2812C28.5911 34.2812 28.5911 34.3624 28.5911 34.3624C28.5911 34.3624 28.6732 34.3624 28.6732 34.4445C28.6732 34.4445 28.7553 34.4445 28.7553 34.5266L28.8374 34.6079C28.8374 34.6079 28.8374 34.69 28.9187 34.69L28.9999 34.7721L29.082 34.8534C29.082 34.8534 29.082 34.9355 29.1641 34.9355C29.1641 35.0176 29.2462 35.0176 29.2462 35.0176C29.2462 35.0176 29.2462 35.0989 29.3283 35.0989C29.3283 35.0989 29.3283 35.0989 29.3283 35.181V35.2631H29.899C30.4704 34.9363 31.1239 34.6095 31.7766 34.2836C33.0829 32.7327 33.9811 30.2023 33.9811 28.0799C33.9811 26.2022 33.0016 24.8147 31.8587 23.1825C30.8792 21.7949 29.8185 20.1627 29.1649 18.0404C29.0828 17.877 29.247 17.6323 29.4096 17.5502C29.573 17.4681 29.8185 17.6315 29.899 17.7949C30.4704 19.8352 31.4499 21.3048 32.4294 22.7736C33.5722 24.4879 34.633 26.0388 34.633 28.0791C34.633 30.4461 33.6535 33.2212 32.1847 34.8534C32.1847 34.8534 32.1034 34.9355 32.0213 34.9355C31.2865 35.2623 30.6338 35.5882 30.0623 35.915C30.2257 36.2418 30.1444 36.323 30.0623 36.323Z" fill="#E04C00"/>
<path d="M29.3288 17.0592C29.1654 17.0592 29.0021 16.8958 29.0021 16.7324C28.7574 15.019 28.8395 12.8145 29.2475 11.0189C29.0842 11.0189 28.9208 11.0189 28.7582 11.0189H28.6761C28.3502 11.0189 28.1047 11.1002 27.7787 11.1823C27.5332 11.2644 27.2073 11.3457 26.8813 11.3457C26.4733 11.3457 26.1465 11.2644 25.8197 11.1823C25.4938 11.1002 25.1662 11.0189 24.7582 11.0189C25.1662 12.8966 25.2475 15.1002 25.0036 16.7324C25.0036 16.8958 24.7582 17.0592 24.5956 17.0592C24.4322 17.0592 24.2688 16.8145 24.2688 16.6512C24.5143 14.9369 24.4322 12.6519 23.9429 10.7743C23.9429 10.6922 23.9429 10.6109 24.0242 10.5296C24.1063 10.4475 24.1867 10.3662 24.2688 10.3662C25.1662 10.2028 25.6564 10.3662 26.0644 10.4483C26.3099 10.5304 26.5546 10.6117 26.8813 10.6117C27.126 10.6117 27.3707 10.5304 27.6153 10.4483C27.9421 10.3662 28.2689 10.2849 28.7582 10.2849H28.8403C29.1662 10.2849 29.493 10.2849 29.7377 10.3662C29.8198 10.3662 29.9003 10.4483 29.9824 10.5296C30.0644 10.6109 30.0645 10.693 30.0645 10.7743C29.6564 12.6519 29.493 14.8556 29.7385 16.6512C29.7369 16.8145 29.6548 17.0592 29.3288 17.0592C29.4093 17.0592 29.4093 17.0592 29.3288 17.0592Z" fill="#E04C00"/>
<path d="M30.1446 18.5291H23.8596C23.2882 18.5291 22.7988 18.0398 22.7988 17.4675C22.7988 17.1416 22.8801 16.8961 23.1248 16.7327C23.3695 16.488 23.6149 16.4067 23.8596 16.4067H30.1446C30.716 16.4067 31.2062 16.8969 31.2062 17.4675C31.2062 17.7943 31.1241 18.0389 30.8794 18.2023C30.716 18.447 30.3884 18.5291 30.1446 18.5291ZM23.7775 17.0595C23.6954 17.0595 23.6149 17.0595 23.5328 17.1416C23.4507 17.2237 23.4507 17.3049 23.4507 17.3862C23.4507 17.5496 23.6141 17.713 23.7767 17.713H30.0617C30.1438 17.713 30.225 17.713 30.3071 17.6309C30.3884 17.5496 30.3884 17.4675 30.3884 17.3862C30.3884 17.2228 30.2259 17.0595 30.0625 17.0595H23.7775Z" fill="#E04C00"/>
<path d="M26.9609 32.4052C24.8385 32.4052 23.043 30.6909 23.043 28.4873C23.043 26.2836 24.7564 24.5693 26.9609 24.5693C29.0824 24.5693 30.878 26.2828 30.878 28.4873C30.878 30.6909 29.0824 32.4052 26.9609 32.4052ZM26.9609 25.3042C25.2466 25.3042 23.777 26.6917 23.777 28.4873C23.777 30.2829 25.1645 31.6704 26.9609 31.6704C28.6744 31.6704 30.144 30.2829 30.144 28.4873C30.144 26.6917 28.6744 25.3042 26.9609 25.3042Z" fill="#E04C00"/>
<path d="M24.9202 33.5481C24.8389 33.5481 24.8389 33.5481 24.7568 33.5481C22.2264 32.4052 21.4103 29.7935 21.329 29.6301C21.2469 29.4667 21.4103 29.2221 21.5737 29.14C21.7371 29.0587 21.9818 29.2221 22.0639 29.3846C22.0639 29.3846 22.7987 31.8338 25.0836 32.8132C25.247 32.8953 25.3291 33.14 25.247 33.3034C25.1649 33.466 25.0023 33.5481 24.9202 33.5481Z" fill="#E04C00"/>
<path d="M35.9407 8.65187C35.7773 8.65187 35.6952 8.57058 35.6139 8.48848C35.5326 8.3251 35.6139 8.08043 35.7773 7.99833L38.4711 6.5287C38.6344 6.44741 38.8791 6.5287 38.9612 6.69208C39.0433 6.85546 38.9612 7.10013 38.7987 7.18223L36.1049 8.65105C36.1032 8.65187 36.022 8.65187 35.9407 8.65187Z" fill="#E04C00"/>
<path d="M17.7375 8.6521C17.6554 8.6521 17.6554 8.6521 17.5741 8.57082L14.8803 7.10118C14.7169 7.01989 14.6356 6.77441 14.7169 6.61103C14.7982 6.44765 15.0429 6.36636 15.2071 6.44764L17.9001 7.91728C18.0635 7.99857 18.1447 8.24324 18.0634 8.40743C17.9822 8.57081 17.8196 8.6521 17.7375 8.6521Z" fill="#E04C00"/>
<path d="M31.858 5.38658C31.7759 5.38658 31.6954 5.38658 31.6954 5.3053C31.532 5.2232 31.45 4.97853 31.6133 4.81515L32.5928 3.26422C32.6749 3.10084 32.9188 3.01956 33.083 3.18294C33.2455 3.26423 33.3276 3.5089 33.1643 3.67228L32.1856 5.2232C32.1035 5.3053 32.0214 5.38658 31.858 5.38658Z" fill="#E04C00"/>
<path d="M38.797 13.5494H36.838C36.6746 13.5494 36.5112 13.3861 36.5112 13.2227C36.5112 13.0593 36.6746 12.8967 36.838 12.8967H38.797C38.9595 12.8967 39.1229 13.0601 39.1229 13.2227C39.1237 13.3869 39.0416 13.5494 38.797 13.5494Z" fill="#E04C00"/>
<path d="M16.8394 13.5494H14.8805C14.7171 13.5494 14.5537 13.3861 14.5537 13.2227C14.5537 13.0593 14.7171 12.8967 14.8805 12.8967H16.8394C17.0028 12.8967 17.1654 13.0601 17.1654 13.2227C17.1654 13.3869 17.002 13.5494 16.8394 13.5494Z" fill="#E04C00"/>
<path d="M21.8186 5.38653C21.6552 5.38653 21.5739 5.30525 21.4918 5.22315L20.5123 3.67223C20.431 3.50885 20.431 3.26418 20.5944 3.18289C20.7578 3.10079 21.0025 3.10079 21.0846 3.26417L22.064 4.8151C22.1453 4.97848 22.1453 5.22315 21.9819 5.30525C21.9819 5.38653 21.8998 5.38653 21.8186 5.38653Z" fill="#E04C00"/>
<path d="M26.879 7.99935C26.7156 7.99935 26.5522 7.83597 26.5522 7.6734V5.95909C26.5522 5.79571 26.7156 5.63232 26.879 5.63232C27.0416 5.63232 27.205 5.79571 27.205 5.95909V7.6734C27.205 7.83597 27.0416 7.99935 26.879 7.99935Z" fill="#E04C00"/>
<path d="M26.879 3.75456C26.7156 3.75456 26.5522 3.59118 26.5522 3.4278V0.325954C26.5522 0.162571 26.7156 0 26.879 0C27.0416 0 27.205 0.163384 27.205 0.325954V3.4278C27.205 3.59199 27.0416 3.75456 26.879 3.75456Z" fill="#E04C00"/>
<path d="M31.6952 10.7741C31.5319 10.7741 31.4498 10.692 31.3685 10.6107C31.2864 10.4473 31.2864 10.2026 31.5319 10.1213L33.0015 9.30525C33.1641 9.22315 33.4095 9.22314 33.4916 9.46863C33.5737 9.63201 33.5737 9.87667 33.3283 9.95877L31.8586 10.7749C31.7757 10.7741 31.7757 10.7741 31.6952 10.7741Z" fill="#E04C00"/>
<path d="M21.9816 10.7743C21.8995 10.7743 21.8182 10.7743 21.8182 10.6922L20.3486 9.87608C20.1852 9.79479 20.1039 9.55013 20.1852 9.38593C20.2665 9.22255 20.5111 9.14126 20.6753 9.22255L22.1442 10.0387C22.3075 10.1199 22.3888 10.3646 22.3075 10.5288C22.2263 10.693 22.1442 10.7743 21.9816 10.7743Z" fill="#E04C00"/>
<path d="M29.491 8.97861C29.4089 8.97861 29.3284 8.97861 29.3284 8.89732C29.165 8.81523 29.0829 8.57056 29.165 8.40718L29.6552 7.50897C29.7365 7.34559 29.9812 7.26431 30.1454 7.34559C30.3087 7.42769 30.39 7.67236 30.3087 7.83574L29.8186 8.73313C29.7365 8.89733 29.6544 8.97861 29.491 8.97861Z" fill="#E04C00"/>
<path d="M24.1851 8.97897C24.0225 8.97897 23.9404 8.89768 23.8591 8.81558L23.369 7.9182C23.2869 7.75482 23.2869 7.51014 23.5324 7.42805C23.6949 7.34595 23.9404 7.34595 24.0225 7.59143L24.5127 8.48882C24.5948 8.6522 24.5948 8.89687 24.3493 8.97897C24.3493 8.97897 24.2664 8.97897 24.1851 8.97897Z" fill="#E04C00"/>
<path d="M32.5926 46.3637H16.7574C16.5941 46.3637 16.4307 46.2003 16.4307 46.0377C16.4307 45.8743 16.5941 45.7109 16.7574 45.7109H32.5934C32.756 45.7109 32.9194 45.8743 32.9194 46.0377C32.9194 46.2003 32.756 46.3637 32.5926 46.3637Z" fill="#E04C00"/>
<path d="M37.7358 47.8322H24.8391C24.6758 47.8322 24.5132 47.6688 24.5132 47.5054C24.5132 47.342 24.6758 47.1794 24.8391 47.1794H37.7358C37.8992 47.1794 38.0618 47.3428 38.0618 47.5054C38.0618 47.668 37.9797 47.8322 37.7358 47.8322Z" fill="#E04C00"/>
<path d="M40.6738 47.8322H39.0408C38.8774 47.8322 38.7148 47.6688 38.7148 47.5054C38.7148 47.342 38.8774 47.1794 39.0408 47.1794H40.6738C40.8364 47.1794 40.9997 47.3428 40.9997 47.5054C40.9997 47.668 40.9185 47.8322 40.6738 47.8322Z" fill="#E04C00"/>
<path d="M19.2874 47.7509H13.1658C13.0024 47.7509 12.8398 47.5875 12.8398 47.4249C12.8398 47.2615 13.0032 47.0981 13.1658 47.0981H19.2874C19.4507 47.0981 19.6141 47.2615 19.6141 47.4249C19.6141 47.5875 19.532 47.7509 19.2874 47.7509Z" fill="#E04C00"/>
<path d="M27.5323 29.1398C27.5323 29.0585 27.5324 28.9764 27.4511 28.8951C27.369 28.8138 27.2877 28.7317 27.1243 28.7317V29.6291C27.2064 29.6291 27.3698 29.5478 27.3698 29.4657C27.5324 29.3844 27.5323 29.2218 27.5323 29.1398ZM26.7975 27.9969V27.1808C26.7154 27.1808 26.6341 27.2621 26.552 27.3442C26.4708 27.4263 26.4708 27.5075 26.4708 27.5888C26.4708 27.6709 26.4708 27.7522 26.552 27.8335C26.6341 27.8343 26.7162 27.9156 26.7975 27.9969ZM27.9412 28.487C28.1038 28.6504 28.1038 28.8138 28.1038 29.0585C28.1038 29.3031 28.0217 29.5486 27.8591 29.7933C27.6957 29.9567 27.4511 30.1192 27.1243 30.1192V30.5281H26.7983V30.1192C26.5529 30.1192 26.309 29.9559 26.1448 29.7933C25.9822 29.6299 25.9001 29.3852 25.8188 29.0585L26.3903 28.9764C26.3903 29.1398 26.4716 29.221 26.5529 29.3031C26.6341 29.3844 26.7162 29.4665 26.7983 29.4665V28.487C26.4724 28.4058 26.309 28.2424 26.1448 28.079C25.9822 27.9156 25.9001 27.6709 25.9001 27.4263C25.9001 27.1816 25.9822 26.9361 26.1448 26.7727C26.3082 26.6093 26.5529 26.5281 26.7983 26.4468H27.1243V26.6914C27.3698 26.6914 27.5324 26.7727 27.6957 26.9361C27.8591 27.0995 27.9412 27.2621 27.9412 27.5075L27.3698 27.5896C27.3698 27.4263 27.2064 27.2629 27.1243 27.1816V28.0798C27.5324 28.1603 27.7778 28.3237 27.9412 28.487Z" fill="#E04C00"/>
</svg>
