<svg width="48" height="48" viewBox="0 0 48 48" fill="none" xmlns="http://www.w3.org/2000/svg">
<circle cx="33.5" cy="17.5" r="13.5" fill="#EFEBEA" fill-opacity="0.43"/>
<path d="M28.5479 31.0291L31.1754 34.6426L29.7299 36.0225L27.4961 32.0151L28.5479 31.0291Z" fill="white"/>
<path d="M34.7889 32.0151L32.4237 35.8246L31.1753 34.6426L33.7371 31.0291L34.7889 32.0151Z" fill="white"/>
<path d="M34.7892 32.0152C40.8331 35.4973 40.1107 33.8545 40.1107 40.6867C34.1319 42.0658 28.1543 42.0658 22.1754 40.6867C22.1754 39.9642 22.1754 39.3068 22.1754 38.7159C22.1097 34.1175 22.1097 35.0372 27.5627 31.9495L29.7964 36.0232L31.242 34.6434L32.5554 35.8254L34.7892 32.0152Z" fill="#F2B200"/>
<path d="M31.2415 19.6643C33.6718 19.6643 35.7083 21.7659 35.7083 24.3284C35.7083 26.7587 34.1313 31.0948 31.2415 31.0948C28.351 31.0948 26.7739 26.7587 26.7739 24.3284C26.7739 21.7659 28.7448 19.6643 31.2415 19.6643Z" fill="white"/>
<path d="M16.7229 32.9999V35.2994H13.438V32.0151H16.7229V32.9999Z" fill="white"/>
<path d="M16.7229 20.8462V22.8176H13.438V19.5327H16.7229V20.8462Z" fill="white"/>
<path d="M16.7229 25.7739H13.438V29.0588H16.7229V25.7739Z" fill="white"/>
<path d="M16.7229 13.2917H13.438V16.5767H16.7229V13.2917Z" fill="white"/>
<path d="M8.8394 35.168H7.19727V6.26245H30.4527V9.87605H10.876V35.168H8.8394Z" fill="#F2B200"/>
<path d="M34.0662 20.9783C33.9347 20.9783 33.8032 20.8468 33.8032 20.7153V10.1388H30.4532C30.3224 10.1388 30.1909 10.0073 30.1909 9.87647C30.1909 9.74499 30.3224 9.61353 30.4532 9.61353H34.0668C34.1983 9.61353 34.3291 9.74499 34.3291 9.87647V20.7153C34.3949 20.8462 34.2634 20.9783 34.0662 20.9783Z" fill="#E04C00"/>
<path d="M22.1752 39.0437H10.8762C10.7448 39.0437 10.6133 38.9122 10.6133 38.7814V35.2335C10.6133 35.1027 10.7448 34.9712 10.8762 34.9712C11.0077 34.9712 11.1385 35.102 11.1385 35.2335V38.5184H22.1095C22.241 38.5184 22.4382 38.6499 22.4382 38.7814C22.4382 38.9122 22.3067 39.0437 22.1752 39.0437Z" fill="#E04C00"/>
<path d="M16.7232 16.9051H13.4382C13.3068 16.9051 13.1753 16.7737 13.1753 16.6422V13.3573C13.1753 13.2265 13.3068 13.095 13.4382 13.095H16.7232C16.854 13.095 16.9855 13.2265 16.9855 13.3573V16.6422C17.0512 16.773 16.9197 16.9051 16.7232 16.9051ZM13.7669 16.3128H16.4602V13.6196H13.7669V16.3128Z" fill="#E04C00"/>
<path d="M16.7232 23.1463H13.4382C13.3068 23.1463 13.1753 23.0149 13.1753 22.8834V19.5985C13.1753 19.4677 13.3068 19.3362 13.4382 19.3362H16.7232C16.854 19.3362 16.9855 19.4677 16.9855 19.5985V22.8834C17.0512 23.0142 16.9197 23.1463 16.7232 23.1463ZM13.7669 22.5541H16.4602V19.8608H13.7669V22.5541Z" fill="#E04C00"/>
<path d="M16.7232 29.3864H13.4382C13.3068 29.3864 13.1753 29.2556 13.1753 29.1241V25.8392C13.1753 25.7077 13.3068 25.5769 13.4382 25.5769H16.7232C16.854 25.5769 16.9855 25.7077 16.9855 25.8392V29.1241C17.0512 29.2556 16.9197 29.3864 16.7232 29.3864ZM13.7669 28.7954H16.4602V26.1022H13.7669V28.7954Z" fill="#E04C00"/>
<path d="M16.7232 35.6274H13.4382C13.3068 35.6274 13.1753 35.4966 13.1753 35.3651V32.0802C13.1753 31.9487 13.3068 31.8179 13.4382 31.8179H16.7232C16.854 31.8179 16.9855 31.9487 16.9855 32.0802V35.3651C17.0512 35.4966 16.9197 35.6274 16.7232 35.6274ZM13.7669 35.0364H16.4602V32.3431H13.7669V35.0364Z" fill="#E04C00"/>
<path d="M26.9056 14.6715H18.2341C18.1027 14.6715 17.9712 14.54 17.9712 14.4085C17.9712 14.2771 18.1027 14.1462 18.2341 14.1462H26.9056C27.0371 14.1462 27.1679 14.2771 27.1679 14.4085C27.1679 14.54 27.0371 14.6715 26.9056 14.6715Z" fill="#E04C00"/>
<path d="M23.6871 15.8534H18.2341C18.1027 15.8534 17.9712 15.7219 17.9712 15.5911C17.9712 15.4596 18.1027 15.3281 18.2341 15.3281H23.6871C23.8179 15.3281 23.9494 15.4596 23.9494 15.5911C23.9494 15.7219 23.8179 15.8534 23.6871 15.8534Z" fill="#E04C00"/>
<path d="M26.9056 20.912H18.2341C18.1027 20.912 17.9712 20.7812 17.9712 20.6497C17.9712 20.5183 18.1027 20.3875 18.2341 20.3875H26.9056C27.0371 20.3875 27.1679 20.5183 27.1679 20.6497C27.1679 20.7812 27.0371 20.912 26.9056 20.912Z" fill="#E04C00"/>
<path d="M23.6871 22.0946H18.2341C18.1027 22.0946 17.9712 21.9631 17.9712 21.8316C17.9712 21.7008 18.1027 21.5693 18.2341 21.5693H23.6871C23.8179 21.5693 23.9494 21.7008 23.9494 21.8316C23.9494 21.9631 23.8179 22.0946 23.6871 22.0946Z" fill="#E04C00"/>
<path d="M26.9056 27.1533H18.2341C18.1027 27.1533 17.9712 27.0224 17.9712 26.891C17.9712 26.7595 18.1027 26.6287 18.2341 26.6287H26.9056C27.0371 26.6287 27.1679 26.7595 27.1679 26.891C27.1679 27.0224 27.0371 27.1533 26.9056 27.1533Z" fill="#E04C00"/>
<path d="M23.6871 28.27H18.2341C18.1027 28.27 17.9712 28.1391 17.9712 28.0077C17.9712 27.8762 18.1027 27.7454 18.2341 27.7454H23.6871C23.8179 27.7454 23.9494 27.8762 23.9494 28.0077C23.9494 28.1385 23.8179 28.27 23.6871 28.27Z" fill="#E04C00"/>
<path d="M25.3292 33.3941H18.2341C18.1027 33.3941 17.9712 33.2633 17.9712 33.1318C17.9712 33.0004 18.1027 32.8689 18.2341 32.8689H25.3292C25.46 32.8689 25.5915 33.0004 25.5915 33.1318C25.5921 33.2633 25.46 33.3941 25.3292 33.3941Z" fill="#E04C00"/>
<path d="M23.292 34.5112H18.2341C18.1027 34.5112 17.9712 34.3804 17.9712 34.2489C17.9712 34.1174 18.1027 33.9866 18.2341 33.9866H23.292C23.4235 33.9866 23.5549 34.1174 23.5549 34.2489C23.5556 34.3797 23.4892 34.5112 23.292 34.5112Z" fill="#E04C00"/>
<path d="M10.8759 35.4308H7.26231C7.13148 35.4308 7 35.3 7 35.1685V6.26294C7 6.13147 7.13148 6 7.26231 6H30.4526C30.5841 6 30.7156 6.13147 30.7156 6.26294V9.87655C30.7156 10.0074 30.5841 10.1389 30.4526 10.1389H11.1382V35.1685C11.1388 35.2993 11.0074 35.4308 10.8759 35.4308ZM7.52589 34.8392H10.5479V9.87526C10.5479 9.74378 10.6793 9.61231 10.8108 9.61231H30.0588V6.59034H7.52589V34.8392Z" fill="#E04C00"/>
<path d="M15.2779 22.0295C15.2115 22.0295 15.0807 21.9631 15.015 21.898L14.424 21.0434C14.3583 20.912 14.3583 20.7148 14.4904 20.6497C14.6212 20.5839 14.8184 20.5839 14.8841 20.7154L15.3436 21.307L17.2494 20.2559C17.3802 20.1908 17.5774 20.1908 17.6432 20.3874C17.7089 20.5182 17.7089 20.7154 17.5117 20.7811L15.4088 22.0295C15.343 22.0295 15.343 22.0295 15.2779 22.0295Z" fill="#E04C00"/>
<path d="M15.2779 34.183C15.2115 34.183 15.0807 34.1167 15.015 34.0516L14.424 33.197C14.3583 33.0655 14.3583 32.8683 14.4904 32.8032C14.6212 32.7375 14.8184 32.7375 14.8841 32.869L15.3436 33.4606L17.2494 32.4094C17.3802 32.3437 17.5774 32.3437 17.6432 32.5409C17.7089 32.6717 17.7089 32.8689 17.5117 32.9347L15.4088 34.183C15.343 34.1167 15.343 34.183 15.2779 34.183Z" fill="#E04C00"/>
<path d="M8.83912 35.431C8.70764 35.431 8.57617 35.3002 8.57617 35.1687V18.6133C8.57617 18.4818 8.70764 18.3503 8.83912 18.3503C8.97059 18.3503 9.10142 18.4818 9.10142 18.6133V35.1687C9.16781 35.2995 9.03633 35.431 8.83912 35.431Z" fill="#E04C00"/>
<path d="M34.7893 37.7953H32.7527C32.6213 37.7953 32.4897 37.6638 32.4897 37.533C32.4897 37.4015 32.6213 37.27 32.7527 37.27H34.7893C34.9207 37.27 35.0516 37.4015 35.0516 37.533C35.0516 37.6638 34.9207 37.7953 34.7893 37.7953Z" fill="#E04C00"/>
<path d="M34.7893 39.1095H32.7527C32.6213 39.1095 32.4897 38.9786 32.4897 38.8472C32.4897 38.7157 32.6213 38.5842 32.7527 38.5842H34.7893C34.9207 38.5842 35.0516 38.7157 35.0516 38.8472C35.0516 38.9786 34.9207 39.1095 34.7893 39.1095Z" fill="#E04C00"/>
<path d="M31.1103 42C28.0883 42 25.0663 41.6713 22.1101 40.9489C21.9786 40.9489 21.9129 40.818 21.9129 40.6866C21.9129 39.9641 21.9129 39.3067 21.9129 38.7158C21.8472 34.7741 21.9129 34.7084 25.0664 33.0005C25.7237 32.6718 26.5119 32.2123 27.4316 31.6864C27.5631 31.6213 27.7603 31.6864 27.8253 31.8179C27.8911 31.9487 27.8254 32.1466 27.6939 32.2117C26.7742 32.7375 25.986 33.1971 25.3293 33.5251C23.8837 34.3133 23.0948 34.7071 22.7662 35.2993C22.4381 35.8903 22.4381 36.81 22.4381 38.7151C22.4381 39.241 22.4381 39.832 22.4381 40.423C28.0876 41.7377 33.9344 41.7377 39.7811 40.423C39.7811 39.7662 39.7811 39.241 39.7811 38.7815C39.7811 36.8757 39.8468 35.9561 39.4524 35.3651C39.1237 34.7741 38.4013 34.3797 36.8906 33.5258C36.2339 33.1971 35.5114 32.8033 34.5917 32.2123C34.4603 32.1466 34.3945 31.9493 34.4603 31.8185C34.526 31.6871 34.7232 31.6213 34.8547 31.6871C35.7743 32.213 36.5632 32.6067 37.1542 32.9354C40.4391 34.709 40.5042 34.8405 40.4391 38.7821C40.4391 39.3074 40.4391 39.9641 40.4391 40.6872C40.4391 40.8187 40.3727 40.9495 40.1762 40.9495C37.1542 41.6713 34.1322 42 31.1103 42Z" fill="#E04C00"/>
<path d="M31.2417 31.4236C28.154 31.4236 26.5112 26.8252 26.5112 24.3285C26.5112 21.5695 28.6129 19.3357 31.2417 19.3357C33.8693 19.3357 35.9715 21.5695 35.9715 24.3285C35.9715 26.8252 34.3288 31.4236 31.2417 31.4236ZM31.2417 19.9267C28.9422 19.9267 27.1029 21.8975 27.1029 24.3285C27.1029 26.5622 28.5484 30.8319 31.2417 30.8319C33.935 30.8319 35.3799 26.5622 35.3799 24.3285C35.3806 21.8981 33.5406 19.9267 31.2417 19.9267Z" fill="#E04C00"/>
<path d="M32.4239 36.1533C32.3582 36.1533 32.2924 36.1533 32.2267 36.0876L30.9132 34.905C30.7818 34.7742 30.7818 34.6427 30.8469 34.5112L33.4751 30.964C33.5408 30.8983 33.6059 30.8325 33.6723 30.8325C33.738 30.8325 33.8695 30.8325 33.8695 30.8989L34.8549 31.8186C34.9864 31.8843 34.9864 32.0809 34.9213 32.2124L32.5561 36.0882C32.6205 36.0876 32.5554 36.0876 32.4239 36.1533C32.489 36.1533 32.489 36.1533 32.4239 36.1533ZM31.5693 34.5769L32.4239 35.3651L34.4605 32.0151L33.8695 31.4892L31.5693 34.5769Z" fill="#E04C00"/>
<path d="M29.7301 36.3505C29.5993 36.3505 29.533 36.2847 29.4679 36.2196L27.2341 32.1465C27.1677 32.0151 27.1677 31.8836 27.2998 31.8178L28.2852 30.8982C28.3516 30.8318 28.4167 30.8318 28.4831 30.8318C28.5488 30.8318 28.6139 30.8982 28.6803 30.9633L31.3078 34.5105C31.3729 34.642 31.3729 34.7734 31.3078 34.9049L29.928 36.219C29.8616 36.2847 29.7965 36.3505 29.7301 36.3505ZM27.8908 32.0151L29.7965 35.4972L30.782 34.5775L28.4831 31.4898L27.8908 32.0151Z" fill="#E04C00"/>
<path d="M29.9274 24.3935C29.7965 24.3935 29.5993 24.3935 29.4679 24.3284C28.6797 24.1969 28.088 23.7374 27.76 23.1464C27.6936 23.0149 27.76 22.8177 27.8908 22.7526C28.0223 22.6862 28.2195 22.7526 28.2845 22.8834C28.6132 23.4744 29.1391 23.738 29.5993 23.8031C30.256 23.9346 30.9134 23.738 31.3072 23.4094C32.2269 22.5548 32.424 22.4239 32.6863 22.5548C32.9493 22.6862 32.8836 22.9492 32.8178 23.1464C32.8178 23.2115 32.8178 23.2115 32.8178 23.2772C32.8178 23.2772 32.8836 23.2772 32.9493 23.2115C33.7375 22.8828 34.3949 22.8828 34.7887 23.08C34.9859 23.2115 35.1173 23.343 35.1824 23.6059C35.2482 23.7374 35.1167 23.9346 34.9852 23.9997C34.8538 24.0661 34.6565 23.9339 34.5914 23.8025C34.5914 23.7374 34.5251 23.671 34.46 23.671C34.2628 23.5402 33.7375 23.6053 33.0808 23.8682C32.8829 23.9346 32.5549 24.0661 32.292 23.8682C32.1611 23.7374 32.0947 23.6059 32.0947 23.4744C31.9639 23.6059 31.8324 23.7374 31.5688 23.9346C31.2414 24.1969 30.5841 24.3935 29.9274 24.3935Z" fill="#E04C00"/>
</svg>
