<svg width="48" height="48" viewBox="0 0 48 48" fill="none" xmlns="http://www.w3.org/2000/svg">
<circle cx="31.5" cy="14.5" r="13.5" fill="#EFEBEA" fill-opacity="0.43"/>
<path d="M14.0461 10.8988C14.9391 10.8988 15.663 10.1749 15.663 9.28186V4.61691C15.663 3.72392 14.9391 3 14.0461 3C13.1531 3 12.4292 3.72392 12.4292 4.61691V9.28186C12.4292 10.1749 13.1531 10.8988 14.0461 10.8988Z" fill="#E04C00"/>
<path d="M29.469 10.8988C30.362 10.8988 31.0859 10.1749 31.0859 9.28186V4.61691C31.0859 3.72392 30.362 3 29.469 3C28.576 3 27.8521 3.72392 27.8521 4.61691V9.28186C27.8521 10.1749 28.576 10.8988 29.469 10.8988Z" fill="#E04C00"/>
<path d="M16.3402 18.3257H11.9485C11.5813 18.3257 11.2837 18.6233 11.2837 18.9905V21.6083C11.2837 21.9754 11.5813 22.2731 11.9485 22.2731H16.3402C16.7073 22.2731 17.005 21.9754 17.005 21.6083V18.9905C17.005 18.6233 16.7073 18.3257 16.3402 18.3257Z" fill="#F2B200"/>
<path d="M19.5623 22.2731H23.9539C24.3211 22.2731 24.6188 21.9754 24.6188 21.6083V18.9905C24.6188 18.6233 24.3211 18.3257 23.9539 18.3257H19.5623C19.1951 18.3257 18.8975 18.6233 18.8975 18.9905V21.6083C18.8975 21.9754 19.1951 22.2731 19.5623 22.2731Z" fill="#F2B200"/>
<path d="M27.1751 22.2731H31.5667C31.9339 22.2731 32.2316 21.9754 32.2316 21.6083V18.9905C32.2316 18.6233 31.9339 18.3257 31.5667 18.3257H27.1751C26.8079 18.3257 26.5103 18.6233 26.5103 18.9905V21.6083C26.5103 21.9754 26.8079 22.2731 27.1751 22.2731Z" fill="#F2B200"/>
<path d="M16.3402 23.5254H11.9485C11.5813 23.5254 11.2837 23.823 11.2837 24.1902V26.808C11.2837 27.1752 11.5813 27.4728 11.9485 27.4728H16.3402C16.7073 27.4728 17.005 27.1752 17.005 26.808V24.1902C17.005 23.823 16.7073 23.5254 16.3402 23.5254Z" fill="#F2B200"/>
<path d="M19.5623 27.4728H23.9539C24.3211 27.4728 24.6188 27.1752 24.6188 26.808V24.1902C24.6188 23.823 24.3211 23.5254 23.9539 23.5254H19.5623C19.1951 23.5254 18.8975 23.823 18.8975 24.1902V26.808C18.8975 27.1752 19.1951 27.4728 19.5623 27.4728Z" fill="#F2B200"/>
<path d="M16.3402 28.7261H11.9485C11.5813 28.7261 11.2837 29.0237 11.2837 29.3909V32.0087C11.2837 32.3758 11.5813 32.6735 11.9485 32.6735H16.3402C16.7073 32.6735 17.005 32.3758 17.005 32.0087V29.3909C17.005 29.0237 16.7073 28.7261 16.3402 28.7261Z" fill="#F2B200"/>
<path d="M36.5146 25.1054V9.32025C36.5146 8.01061 35.4532 6.94946 34.1438 6.94946H31.6471V9.28185C31.6471 10.483 30.67 11.4601 29.4686 11.4601C28.2675 11.4601 27.2903 10.483 27.2903 9.28185V6.94946H16.2243V9.28185C16.2243 10.483 15.2471 11.4601 14.046 11.4601C12.8446 11.4601 11.8677 10.483 11.8677 9.28185V6.94946H9.37079C8.06139 6.94946 7 8.01061 7 9.32025V33.0262C7 34.3356 8.06139 35.3972 9.37079 35.3972H22.3725C22.3725 41.3694 27.214 46.2109 33.1862 46.2109C39.1585 46.2109 44 41.3694 44 35.3971C44 30.5862 40.8583 26.5091 36.5146 25.1054ZM8.4972 33.0262V17.0983H35.0174V24.738C34.4221 24.6365 33.8104 24.5834 33.1862 24.5834C32.8642 24.5834 32.5455 24.5975 32.2306 24.6251V24.1904C32.2306 23.8232 31.9331 23.5254 31.5659 23.5254H27.1741C26.807 23.5254 26.5094 23.8232 26.5094 24.1904V26.808C26.5094 26.8345 26.5113 26.8607 26.5143 26.8864C25.7451 27.4903 25.0599 28.1963 24.4789 28.9838C24.3572 28.8268 24.167 28.7256 23.953 28.7256H19.5615C19.1944 28.7256 18.8966 29.0234 18.8966 29.3906V32.0081C18.8966 32.3753 19.1944 32.6731 19.5615 32.6731H22.7186C22.6147 33.0735 22.5331 33.4829 22.4753 33.9H9.37079C8.88915 33.9 8.4972 33.5081 8.4972 33.0262ZM39.7816 41.9925C38.9245 42.8495 37.9268 43.5223 36.8164 43.992C35.6674 44.478 34.4461 44.7244 33.1862 44.7244C31.9264 44.7244 30.7051 44.4779 29.5561 43.992C28.4456 43.5223 27.448 42.8495 26.5909 41.9925C25.7338 41.1354 25.0611 40.1377 24.5914 39.0272C24.1054 37.8783 23.859 36.657 23.859 35.3971C23.859 34.1373 24.1054 32.916 24.5914 31.767C25.0611 30.6565 25.7338 29.6589 26.5909 28.8018C27.448 27.9447 28.4456 27.272 29.5561 26.8023C30.7051 26.3163 31.9264 26.0699 33.1862 26.0699C34.4461 26.0699 35.6674 26.3163 36.8164 26.8023C37.9268 27.272 38.9245 27.9447 39.7816 28.8018C40.6386 29.6589 41.3114 30.6565 41.7811 31.767C42.267 32.916 42.5134 34.1373 42.5134 35.3971C42.5134 36.657 42.267 37.8783 41.7811 39.0272C41.3114 40.1378 40.6386 41.1354 39.7816 41.9925Z" fill="#E04C00"/>
<path d="M33.1864 36.4998C35.0287 36.4998 36.5221 35.0063 36.5221 33.164V31.5646C36.5221 29.7223 35.0287 28.3975 33.1864 28.3975C31.3441 28.3975 29.8506 29.7223 29.8506 31.5646V33.164C29.8506 35.0063 31.3441 36.4998 33.1864 36.4998Z" fill="#F2B200"/>
<path d="M35.4615 36.9258C34.7871 37.2987 34.0113 37.5107 33.1861 37.5107C32.4002 37.5107 31.6594 37.3182 31.008 36.9781C29.439 37.4654 28.1375 38.4344 27.3448 39.6776C27.0612 40.1224 27.1187 40.7062 27.4913 41.0796C27.4933 41.0816 27.4953 41.0836 27.4973 41.0856C28.2366 41.8249 29.0971 42.4052 30.0549 42.8103C31.0459 43.2295 32.0994 43.442 33.1861 43.442C34.2727 43.442 35.3262 43.2295 36.3172 42.8103C37.2751 42.4052 38.1355 41.8249 38.8748 41.0856C38.9389 41.0215 39.0018 40.9565 39.0636 40.8906C39.4279 40.5013 39.4692 39.9093 39.1634 39.4726C38.3305 38.2831 37.0205 37.3688 35.4615 36.9258Z" fill="#F2B200"/>
</svg>
