<svg width="152" height="60" viewBox="0 0 152 60" fill="none" xmlns="http://www.w3.org/2000/svg">
<g clip-path="url(#clip0_195_109)">
<mask id="mask0_195_109" style="mask-type:luminance" maskUnits="userSpaceOnUse" x="0" y="0" width="152" height="60">
<path d="M152 0H0V60H152V0Z" fill="white"/>
</mask>
<g mask="url(#mask0_195_109)">
<path d="M9.92578 27.1807C8.63166 27.1807 7.42298 27.024 6.29976 26.7108C5.17653 26.3975 4.17542 25.9638 3.29639 25.4096C2.41735 24.8313 1.68482 24.1927 1.0988 23.4939C0.53719 22.7951 0.170924 22.0602 0 21.2891L4.90795 19.8433C5.22539 20.6626 5.78699 21.3734 6.59277 21.9758C7.39855 22.5542 8.4119 22.8554 9.63277 22.8795C10.9269 22.9036 11.9769 22.6264 12.7827 22.0481C13.6129 21.4698 14.028 20.7228 14.028 19.8072C14.028 19.012 13.6983 18.3494 13.039 17.8192C12.4042 17.265 11.5252 16.8433 10.4019 16.5542L7.06892 15.6867C5.82361 15.3734 4.72482 14.9035 3.77253 14.277C2.82024 13.6264 2.0755 12.8313 1.53831 11.8915C1.00112 10.9517 0.73253 9.85535 0.73253 8.60233C0.73253 6.21679 1.52611 4.36138 3.11325 3.03607C4.72482 1.68667 6.99566 1.01197 9.92578 1.01197C11.5618 1.01197 12.9902 1.25293 14.2111 1.73486C15.4564 2.19269 16.4941 2.85534 17.3243 3.72281C18.1546 4.59028 18.7894 5.61437 19.2289 6.7951L14.3576 8.27703C14.0646 7.45774 13.5274 6.75896 12.746 6.18064C11.9647 5.60233 10.9758 5.31317 9.77928 5.31317C8.55841 5.31317 7.59388 5.59029 6.88578 6.1445C6.20208 6.6987 5.86024 7.48185 5.86024 8.4939C5.86024 9.28908 6.12882 9.91557 6.66602 10.3734C7.22762 10.8313 7.98458 11.1807 8.93687 11.4216L12.3065 12.253C14.5041 12.7831 16.2133 13.7349 17.4342 15.1084C18.6551 16.4819 19.2655 18.012 19.2655 19.6987C19.2655 21.1927 18.8993 22.506 18.1667 23.6385C17.4342 24.7469 16.372 25.6144 14.9802 26.2409C13.5884 26.8674 11.9036 27.1807 9.92578 27.1807ZM22.8704 26.7469V8.67462H27.4121L27.7051 11.9999V26.7469H22.8704ZM34.9938 26.7469V17.4939H39.8284V26.7469H34.9938ZM34.9938 17.4939C34.9938 16.265 34.8473 15.3132 34.5543 14.6385C34.2857 13.9638 33.895 13.4819 33.3822 13.1927C32.8694 12.8794 32.2712 12.7228 31.5875 12.7228C30.3422 12.6987 29.3777 13.0722 28.694 13.8433C28.0347 14.6144 27.7051 15.759 27.7051 17.277H26.0935C26.0935 15.3494 26.3743 13.7228 26.9359 12.3975C27.522 11.0481 28.3277 10.024 29.3533 9.32522C30.4033 8.60233 31.6241 8.24088 33.0159 8.24088C34.4566 8.24088 35.6897 8.53004 36.7151 9.10835C37.7407 9.68667 38.5223 10.5903 39.0592 11.8192C39.5965 13.024 39.8529 14.5903 39.8284 16.518V17.4939H34.9938ZM52.2946 27.1807C50.4387 27.1807 48.7784 26.7831 47.3134 25.9879C45.8729 25.1686 44.7374 24.0481 43.9071 22.6264C43.1013 21.2048 42.6984 19.5662 42.6984 17.7108C42.6984 15.8554 43.1013 14.2168 43.9071 12.7951C44.7129 11.3734 45.8362 10.265 47.2768 9.4698C48.7173 8.65051 50.3655 8.24088 52.2213 8.24088C54.1014 8.24088 55.762 8.65051 57.2025 9.4698C58.6431 10.265 59.7664 11.3734 60.5722 12.7951C61.378 14.2168 61.7809 15.8554 61.7809 17.7108C61.7809 19.5662 61.378 21.2048 60.5722 22.6264C59.7664 24.0481 58.6431 25.1686 57.2025 25.9879C55.7862 26.7831 54.1505 27.1807 52.2946 27.1807ZM52.2946 22.771C53.1982 22.771 53.9915 22.5542 54.6753 22.1204C55.3591 21.6867 55.884 21.0963 56.2503 20.3493C56.6411 19.5783 56.8363 18.6987 56.8363 17.7108C56.8363 16.7228 56.6411 15.8554 56.2503 15.1084C55.8595 14.3373 55.3101 13.7349 54.6021 13.3011C53.9182 12.8674 53.1249 12.6505 52.2213 12.6505C51.3423 12.6505 50.5486 12.8674 49.8406 13.3011C49.1568 13.7349 48.6199 14.3373 48.229 15.1084C47.8382 15.8554 47.643 16.7228 47.643 17.7108C47.643 18.6987 47.8382 19.5783 48.229 20.3493C48.6199 21.0963 49.1693 21.6867 49.8772 22.1204C50.5852 22.5542 51.391 22.771 52.2946 22.771ZM73.5768 27.1807C71.7209 27.1807 70.0606 26.7831 68.5956 25.9879C67.1547 25.1686 66.0193 24.0481 65.1893 22.6264C64.3835 21.2048 63.9806 19.5662 63.9806 17.7108C63.9806 15.8554 64.3835 14.2168 65.1893 12.7951C65.9951 11.3734 67.1181 10.265 68.559 9.4698C69.9995 8.65051 71.6477 8.24088 73.5035 8.24088C75.3836 8.24088 77.0439 8.65051 78.4847 9.4698C79.9253 10.265 81.0486 11.3734 81.8544 12.7951C82.6602 14.2168 83.0631 15.8554 83.0631 17.7108C83.0631 19.5662 82.6602 21.2048 81.8544 22.6264C81.0486 24.0481 79.9253 25.1686 78.4847 25.9879C77.0684 26.7831 75.4323 27.1807 73.5768 27.1807ZM73.5768 22.771C74.48 22.771 75.2737 22.5542 75.9575 22.1204C76.641 21.6867 77.1662 21.0963 77.5325 20.3493C77.9229 19.5783 78.1185 18.6987 78.1185 17.7108C78.1185 16.7228 77.9229 15.8554 77.5325 15.1084C77.1416 14.3373 76.5923 13.7349 75.8843 13.3011C75.2004 12.8674 74.4067 12.6505 73.5035 12.6505C72.6245 12.6505 71.8308 12.8674 71.1228 13.3011C70.439 13.7349 69.9017 14.3373 69.5112 15.1084C69.1204 15.8554 68.9252 16.7228 68.9252 17.7108C68.9252 18.6987 69.1204 19.5783 69.5112 20.3493C69.9017 21.0963 70.4511 21.6867 71.1594 22.1204C71.8674 22.5542 72.6732 22.771 73.5768 22.771ZM85.3357 26.7469V23.277L94.3825 12.6144H85.3357V8.67462H100.426V12.1084L91.3791 22.8433H100.462V26.7469H85.3357ZM103.999 26.7469V8.67462H108.834V26.7469H103.999ZM106.416 5.74691C105.684 5.74691 105.037 5.48186 104.475 4.95173C103.914 4.39752 103.633 3.74692 103.633 2.99992C103.633 2.25293 103.914 1.61438 104.475 1.08426C105.037 0.530037 105.684 0.25293 106.416 0.25293C107.174 0.25293 107.821 0.530037 108.358 1.08426C108.92 1.61438 109.2 2.25293 109.2 2.99992C109.2 3.74692 108.92 4.39752 108.358 4.95173C107.821 5.48186 107.174 5.74691 106.416 5.74691ZM113.292 26.7469V8.67462H117.834L118.127 11.9999V26.7469H113.292ZM125.415 26.7469V17.4939H130.25V26.7469H125.415ZM125.415 17.4939C125.415 16.265 125.269 15.3132 124.976 14.6385C124.707 13.9638 124.317 13.4819 123.804 13.1927C123.291 12.8794 122.693 12.7228 122.009 12.7228C120.764 12.6987 119.799 13.0722 119.116 13.8433C118.456 14.6144 118.127 15.759 118.127 17.277H116.515C116.515 15.3494 116.796 13.7228 117.358 12.3975C117.944 11.0481 118.749 10.024 119.775 9.32522C120.825 8.60233 122.046 8.24088 123.438 8.24088C124.878 8.24088 126.111 8.53004 127.137 9.10835C128.162 9.68667 128.944 10.5903 129.481 11.8192C130.018 13.024 130.275 14.5903 130.25 16.518V17.4939H125.415ZM142.35 34.4457C140.958 34.4457 139.725 34.3493 138.651 34.1566C137.576 33.9638 136.673 33.7108 135.94 33.3975C135.208 33.0843 134.61 32.771 134.146 32.4578L136.05 28.6264C136.392 28.8192 136.844 29.0361 137.405 29.277C137.967 29.5421 138.639 29.759 139.42 29.9277C140.201 30.1204 141.105 30.2168 142.13 30.2168C143.107 30.2168 143.962 30.024 144.694 29.6385C145.451 29.277 146.037 28.6987 146.452 27.9036C146.892 27.1325 147.111 26.1445 147.111 24.9397V8.67462H151.946V24.7951C151.946 26.8192 151.555 28.5542 150.774 29.9999C149.993 31.4698 148.882 32.5782 147.441 33.3252C146.025 34.0722 144.328 34.4457 142.35 34.4457ZM141.398 26.2409C139.713 26.2409 138.248 25.8795 137.003 25.1566C135.782 24.4337 134.829 23.4216 134.146 22.1204C133.462 20.8192 133.12 19.277 133.12 17.4939C133.12 15.6144 133.462 13.9879 134.146 12.6144C134.829 11.2168 135.782 10.1445 137.003 9.39751C138.248 8.62644 139.713 8.24088 141.398 8.24088C142.863 8.24088 144.133 8.62644 145.207 9.39751C146.281 10.1445 147.111 11.2168 147.697 12.6144C148.284 14.012 148.577 15.6747 148.577 17.6024C148.577 19.3373 148.284 20.8554 147.697 22.1566C147.111 23.4578 146.281 24.4698 145.207 25.1927C144.133 25.8915 142.863 26.2409 141.398 26.2409ZM142.79 22.2289C143.62 22.2289 144.34 22.024 144.95 21.6144C145.585 21.1807 146.074 20.6024 146.416 19.8795C146.757 19.1325 146.928 18.2891 146.928 17.3493C146.928 16.3855 146.745 15.5421 146.379 14.8192C146.037 14.0963 145.549 13.53 144.914 13.1204C144.303 12.7108 143.583 12.506 142.753 12.506C141.898 12.506 141.141 12.7108 140.482 13.1204C139.823 13.53 139.31 14.0963 138.944 14.8192C138.577 15.5421 138.382 16.3855 138.358 17.3493C138.382 18.2891 138.577 19.1325 138.944 19.8795C139.31 20.6024 139.823 21.1807 140.482 21.6144C141.166 22.024 141.935 22.2289 142.79 22.2289ZM1.31855 59.277V33.9758H6.7759L14.2477 44.8915L21.7195 33.9758H27.1402V59.277H22.159V41.7108L14.2477 53.2048L6.33639 41.7469V59.277H1.31855ZM40.6342 59.7108C38.7787 59.7108 37.118 59.3132 35.653 58.518C34.2124 57.6986 33.077 56.5781 32.2468 55.1566C31.441 53.735 31.0381 52.0962 31.0381 50.2409C31.0381 48.3856 31.441 46.7468 32.2468 45.3252C33.0526 43.9037 34.1758 42.7951 35.6164 41.9999C37.0572 41.1805 38.7054 40.771 40.5609 40.771C42.4413 40.771 44.1016 41.1805 45.5421 41.9999C46.983 42.7951 48.106 43.9037 48.9118 45.3252C49.7176 46.7468 50.1204 48.3856 50.1204 50.2409C50.1204 52.0962 49.7176 53.735 48.9118 55.1566C48.106 56.5781 46.983 57.6986 45.5421 58.518C44.1262 59.3132 42.49 59.7108 40.6342 59.7108ZM40.6342 55.3011C41.5378 55.3011 42.3315 55.0843 43.0149 54.6505C43.6987 54.2168 44.2236 53.6266 44.5898 52.8795C44.9806 52.1085 45.1759 51.2287 45.1759 50.2409C45.1759 49.2531 44.9806 48.3856 44.5898 47.6385C44.1994 46.8675 43.65 46.265 42.9416 45.8313C42.2582 45.3975 41.4645 45.1807 40.5609 45.1807C39.6819 45.1807 38.8886 45.3975 38.1802 45.8313C37.4968 46.265 36.9594 46.8675 36.5687 47.6385C36.178 48.3856 35.9827 49.2531 35.9827 50.2409C35.9827 51.2287 36.178 52.1085 36.5687 52.8795C36.9594 53.6266 37.5088 54.2168 38.2168 54.6505C38.9252 55.0843 39.731 55.3011 40.6342 55.3011ZM53.3091 59.277V41.2048H57.8508L58.1438 44.5301V59.277H53.3091ZM65.4325 59.277V50.024H70.2672V59.277H65.4325ZM65.4325 50.024C65.4325 48.7951 65.286 47.8434 64.993 47.1686C64.7242 46.4938 64.3337 46.012 63.821 45.7228C63.3082 45.4095 62.7097 45.253 62.0263 45.253C60.781 45.2287 59.8162 45.6025 59.1328 46.3734C58.4735 47.1444 58.1438 48.2891 58.1438 49.8072H56.5323C56.5323 47.8796 56.8128 46.2531 57.3747 44.9277C57.9607 43.5784 58.7665 42.554 59.792 41.8554C60.8418 41.1325 62.0629 40.771 63.4547 40.771C64.8952 40.771 66.1284 41.0602 67.154 41.6385C68.1795 42.2168 68.9608 43.1204 69.4981 44.3493C70.035 45.554 70.2914 47.1205 70.2672 49.0481V50.024H65.4325ZM78.7411 54.6867L75.8476 51.3975L85.224 41.2048H90.9744L78.7411 54.6867ZM74.1262 59.277V33.9758H78.9609V59.277H74.1262ZM85.8467 59.277L79.7667 50.5301L82.9165 47.2409L91.5238 59.277H85.8467Z" fill="#FF6200"/>
</g>
</g>
<defs>
<clipPath id="clip0_195_109">
<rect width="152" height="60" fill="white"/>
</clipPath>
</defs>
</svg>
