<svg width="152" height="60" viewBox="0 0 152 60" fill="none" xmlns="http://www.w3.org/2000/svg">
<g clip-path="url(#clip0_63_8)">
<path d="M9.92578 27.1808C8.63166 27.1808 7.42298 27.0241 6.29976 26.7109C5.17653 26.3976 4.17542 25.9639 3.29639 25.4097C2.41735 24.8314 1.68482 24.1928 1.0988 23.494C0.53719 22.7952 0.170924 22.0603 0 21.2892L4.90795 19.8434C5.22539 20.6627 5.78699 21.3735 6.59277 21.9759C7.39855 22.5543 8.4119 22.8554 9.63277 22.8796C10.9269 22.9037 11.9769 22.6265 12.7827 22.0482C13.6129 21.4699 14.028 20.7229 14.028 19.8073C14.028 19.0121 13.6983 18.3494 13.039 17.8193C12.4042 17.2651 11.5252 16.8434 10.4019 16.5543L7.06892 15.6868C5.82361 15.3735 4.72482 14.9036 3.77253 14.2771C2.82024 13.6265 2.0755 12.8314 1.53831 11.8916C1.00112 10.9518 0.73253 9.85547 0.73253 8.60245C0.73253 6.21691 1.52611 4.3615 3.11325 3.03619C4.72482 1.68679 6.99566 1.01209 9.92578 1.01209C11.5618 1.01209 12.9902 1.25305 14.2111 1.73498C15.4564 2.19281 16.4941 2.85546 17.3243 3.72293C18.1546 4.5904 18.7894 5.61449 19.2289 6.79522L14.3576 8.27715C14.0646 7.45786 13.5274 6.75908 12.746 6.18076C11.9647 5.60245 10.9758 5.31329 9.77928 5.31329C8.55841 5.31329 7.59388 5.59041 6.88578 6.14462C6.20208 6.69882 5.86024 7.48197 5.86024 8.49402C5.86024 9.2892 6.12882 9.91569 6.66602 10.3735C7.22762 10.8314 7.98458 11.1808 8.93687 11.4217L12.3065 12.2531C14.5041 12.7832 16.2133 13.735 17.4342 15.1085C18.6551 16.482 19.2655 18.0121 19.2655 19.6988C19.2655 21.1928 18.8993 22.5061 18.1667 23.6386C17.4342 24.747 16.372 25.6145 14.9802 26.241C13.5884 26.8675 11.9036 27.1808 9.92578 27.1808ZM22.8704 26.747V8.67474H27.4121L27.7051 12V26.747H22.8704ZM34.9938 26.747V17.494H39.8284V26.747H34.9938ZM34.9938 17.494C34.9938 16.2651 34.8473 15.3133 34.5543 14.6386C34.2857 13.9639 33.895 13.482 33.3822 13.1928C32.8694 12.8795 32.2712 12.7229 31.5875 12.7229C30.3422 12.6988 29.3777 13.0723 28.694 13.8434C28.0347 14.6145 27.7051 15.7591 27.7051 17.2771H26.0935C26.0935 15.3494 26.3743 13.7229 26.9359 12.3976C27.522 11.0482 28.3277 10.0241 29.3533 9.32534C30.4033 8.60245 31.6241 8.241 33.0159 8.241C34.4566 8.241 35.6897 8.53016 36.7151 9.10847C37.7407 9.68679 38.5223 10.5904 39.0592 11.8193C39.5966 13.0241 39.8529 14.5904 39.8284 16.5181V17.494H34.9938ZM52.2946 27.1808C50.4387 27.1808 48.7784 26.7832 47.3134 25.988C45.8729 25.1687 44.7374 24.0482 43.9071 22.6265C43.1013 21.2049 42.6985 19.5663 42.6985 17.7109C42.6985 15.8555 43.1013 14.2169 43.9071 12.7952C44.7129 11.3735 45.8362 10.2651 47.2768 9.46992C48.7173 8.65063 50.3655 8.241 52.2213 8.241C54.1014 8.241 55.762 8.65063 57.2025 9.46992C58.6431 10.2651 59.7664 11.3735 60.5722 12.7952C61.378 14.2169 61.7809 15.8555 61.7809 17.7109C61.7809 19.5663 61.378 21.2049 60.5722 22.6265C59.7664 24.0482 58.6431 25.1687 57.2025 25.988C55.7862 26.7832 54.1505 27.1808 52.2946 27.1808ZM52.2946 22.7711C53.1982 22.7711 53.9915 22.5543 54.6753 22.1205C55.3591 21.6868 55.884 21.0964 56.2503 20.3494C56.6411 19.5784 56.8363 18.6988 56.8363 17.7109C56.8363 16.7229 56.6411 15.8555 56.2503 15.1085C55.8595 14.3374 55.3101 13.735 54.6021 13.3012C53.9183 12.8675 53.1249 12.6506 52.2213 12.6506C51.3423 12.6506 50.5486 12.8675 49.8406 13.3012C49.1568 13.735 48.6199 14.3374 48.2291 15.1085C47.8382 15.8555 47.643 16.7229 47.643 17.7109C47.643 18.6988 47.8382 19.5784 48.2291 20.3494C48.6199 21.0964 49.1693 21.6868 49.8772 22.1205C50.5852 22.5543 51.391 22.7711 52.2946 22.7711ZM73.5768 27.1808C71.7209 27.1808 70.0606 26.7832 68.5956 25.988C67.1547 25.1687 66.0193 24.0482 65.1893 22.6265C64.3835 21.2049 63.9807 19.5663 63.9807 17.7109C63.9807 15.8555 64.3835 14.2169 65.1893 12.7952C65.9951 11.3735 67.1181 10.2651 68.559 9.46992C69.9995 8.65063 71.6477 8.241 73.5035 8.241C75.3836 8.241 77.0439 8.65063 78.4847 9.46992C79.9253 10.2651 81.0486 11.3735 81.8544 12.7952C82.6602 14.2169 83.0631 15.8555 83.0631 17.7109C83.0631 19.5663 82.6602 21.2049 81.8544 22.6265C81.0486 24.0482 79.9253 25.1687 78.4847 25.988C77.0684 26.7832 75.4323 27.1808 73.5768 27.1808ZM73.5768 22.7711C74.48 22.7711 75.2737 22.5543 75.9575 22.1205C76.641 21.6868 77.1662 21.0964 77.5325 20.3494C77.9229 19.5784 78.1185 18.6988 78.1185 17.7109C78.1185 16.7229 77.9229 15.8555 77.5325 15.1085C77.1417 14.3374 76.5923 13.735 75.8843 13.3012C75.2005 12.8675 74.4068 12.6506 73.5035 12.6506C72.6245 12.6506 71.8308 12.8675 71.1228 13.3012C70.439 13.735 69.9017 14.3374 69.5113 15.1085C69.1204 15.8555 68.9252 16.7229 68.9252 17.7109C68.9252 18.6988 69.1204 19.5784 69.5113 20.3494C69.9017 21.0964 70.4511 21.6868 71.1594 22.1205C71.8674 22.5543 72.6732 22.7711 73.5768 22.7711ZM85.3357 26.747V23.2771L94.3825 12.6145H85.3357V8.67474H100.426V12.1085L91.3791 22.8434H100.462V26.747H85.3357ZM103.999 26.747V8.67474H108.834V26.747H103.999ZM106.416 5.74703C105.684 5.74703 105.037 5.48198 104.475 4.95185C103.914 4.39764 103.633 3.74704 103.633 3.00004C103.633 2.25305 103.914 1.6145 104.475 1.08438C105.037 0.530159 105.684 0.253052 106.416 0.253052C107.174 0.253052 107.821 0.530159 108.358 1.08438C108.92 1.6145 109.2 2.25305 109.2 3.00004C109.2 3.74704 108.92 4.39764 108.358 4.95185C107.821 5.48198 107.174 5.74703 106.416 5.74703ZM113.292 26.747V8.67474H117.834L118.127 12V26.747H113.292ZM125.415 26.747V17.494H130.25V26.747H125.415ZM125.415 17.494C125.415 16.2651 125.269 15.3133 124.976 14.6386C124.707 13.9639 124.317 13.482 123.804 13.1928C123.291 12.8795 122.693 12.7229 122.009 12.7229C120.764 12.6988 119.799 13.0723 119.116 13.8434C118.456 14.6145 118.127 15.7591 118.127 17.2771H116.515C116.515 15.3494 116.796 13.7229 117.358 12.3976C117.944 11.0482 118.749 10.0241 119.775 9.32534C120.825 8.60245 122.046 8.241 123.438 8.241C124.878 8.241 126.111 8.53016 127.137 9.10847C128.162 9.68679 128.944 10.5904 129.481 11.8193C130.018 13.0241 130.275 14.5904 130.25 16.5181V17.494H125.415ZM142.35 34.4458C140.958 34.4458 139.725 34.3494 138.651 34.1567C137.576 33.9639 136.673 33.7109 135.94 33.3976C135.208 33.0844 134.61 32.7711 134.146 32.4579L136.05 28.6265C136.392 28.8193 136.844 29.0362 137.405 29.2771C137.967 29.5422 138.639 29.7591 139.42 29.9278C140.201 30.1205 141.105 30.2169 142.13 30.2169C143.107 30.2169 143.962 30.0241 144.694 29.6386C145.451 29.2771 146.037 28.6988 146.452 27.9037C146.892 27.1326 147.111 26.1446 147.111 24.9398V8.67474H151.946V24.7952C151.946 26.8193 151.555 28.5543 150.774 30C149.993 31.4699 148.882 32.5783 147.441 33.3253C146.025 34.0723 144.328 34.4458 142.35 34.4458ZM141.398 26.241C139.713 26.241 138.248 25.8796 137.003 25.1567C135.782 24.4338 134.83 23.4217 134.146 22.1205C133.462 20.8193 133.12 19.2771 133.12 17.494C133.12 15.6145 133.462 13.988 134.146 12.6145C134.83 11.2169 135.782 10.1446 137.003 9.39763C138.248 8.62656 139.713 8.241 141.398 8.241C142.863 8.241 144.133 8.62656 145.207 9.39763C146.281 10.1446 147.111 11.2169 147.697 12.6145C148.284 14.0121 148.577 15.6748 148.577 17.6024C148.577 19.3374 148.284 20.8555 147.697 22.1567C147.111 23.4579 146.281 24.4699 145.207 25.1928C144.133 25.8916 142.863 26.241 141.398 26.241ZM142.79 22.229C143.62 22.229 144.34 22.0241 144.951 21.6145C145.585 21.1808 146.074 20.6024 146.416 19.8796C146.757 19.1326 146.928 18.2892 146.928 17.3494C146.928 16.3856 146.745 15.5422 146.379 14.8193C146.037 14.0964 145.549 13.5301 144.914 13.1205C144.303 12.7109 143.583 12.5061 142.753 12.5061C141.898 12.5061 141.141 12.7109 140.482 13.1205C139.823 13.5301 139.31 14.0964 138.944 14.8193C138.577 15.5422 138.382 16.3856 138.358 17.3494C138.382 18.2892 138.577 19.1326 138.944 19.8796C139.31 20.6024 139.823 21.1808 140.482 21.6145C141.166 22.0241 141.935 22.229 142.79 22.229ZM1.31855 59.2771V33.9759H6.7759L14.2477 44.8916L21.7195 33.9759H27.1402V59.2771H22.159V41.7109L14.2477 53.2049L6.33639 41.747V59.2771H1.31855ZM40.6342 59.7109C38.7787 59.7109 37.118 59.3133 35.653 58.5181C34.2124 57.6987 33.077 56.5782 32.2468 55.1567C31.441 53.7351 31.0381 52.0963 31.0381 50.241C31.0381 48.3857 31.441 46.7469 32.2468 45.3253C33.0526 43.9038 34.1758 42.7952 35.6164 42C37.0572 41.1806 38.7054 40.7711 40.5609 40.7711C42.4413 40.7711 44.1016 41.1806 45.5421 42C46.983 42.7952 48.106 43.9038 48.9118 45.3253C49.7176 46.7469 50.1204 48.3857 50.1204 50.241C50.1204 52.0963 49.7176 53.7351 48.9118 55.1567C48.106 56.5782 46.983 57.6987 45.5421 58.5181C44.1262 59.3133 42.49 59.7109 40.6342 59.7109ZM40.6342 55.3012C41.5378 55.3012 42.3315 55.0844 43.0149 54.6506C43.6987 54.2169 44.2236 53.6267 44.5898 52.8796C44.9806 52.1086 45.1759 51.2288 45.1759 50.241C45.1759 49.2532 44.9806 48.3857 44.5898 47.6386C44.1994 46.8676 43.65 46.2651 42.9417 45.8314C42.2582 45.3976 41.4645 45.1808 40.5609 45.1808C39.6819 45.1808 38.8886 45.3976 38.1802 45.8314C37.4968 46.2651 36.9594 46.8676 36.5687 47.6386C36.178 48.3857 35.9827 49.2532 35.9827 50.241C35.9827 51.2288 36.178 52.1086 36.5687 52.8796C36.9594 53.6267 37.5088 54.2169 38.2168 54.6506C38.9252 55.0844 39.731 55.3012 40.6342 55.3012ZM53.3092 59.2771V41.2049H57.8508L58.1439 44.5302V59.2771H53.3092ZM65.4325 59.2771V50.0241H70.2672V59.2771H65.4325ZM65.4325 50.0241C65.4325 48.7952 65.286 47.8435 64.993 47.1687C64.7242 46.4939 64.3337 46.0121 63.821 45.7229C63.3082 45.4096 62.7097 45.253 62.0263 45.253C60.781 45.2288 59.8162 45.6026 59.1328 46.3735C58.4735 47.1445 58.1439 48.2892 58.1439 49.8073H56.5323C56.5323 47.8797 56.8128 46.2532 57.3747 44.9277C57.9607 43.5785 58.7665 42.5541 59.792 41.8555C60.8418 41.1326 62.0629 40.7711 63.4547 40.7711C64.8952 40.7711 66.1284 41.0603 67.154 41.6386C68.1795 42.2169 68.9608 43.1205 69.4981 44.3494C70.035 45.5541 70.2914 47.1206 70.2672 49.0482V50.0241H65.4325ZM78.7411 54.6868L75.8476 51.3976L85.224 41.2049H90.9744L78.7411 54.6868ZM74.1262 59.2771V33.9759H78.9609V59.2771H74.1262ZM85.8467 59.2771L79.7667 50.5302L82.9166 47.241L91.5238 59.2771H85.8467Z" fill="url(#paint0_linear_63_8)"/>
</g>
<defs>
<linearGradient id="paint0_linear_63_8" x1="-1.46506" y1="30.1808" x2="190.092" y2="30.1808" gradientUnits="userSpaceOnUse">
<stop stop-color="#F2B200"/>
<stop offset="1" stop-color="#FF6200"/>
</linearGradient>
<clipPath id="clip0_63_8">
<rect width="152" height="60" fill="white"/>
</clipPath>
</defs>
</svg>
