<svg width="48" height="48" viewBox="0 0 48 48" fill="none" xmlns="http://www.w3.org/2000/svg">
<circle cx="33.5" cy="17.5" r="13.5" fill="#EFEBEA" fill-opacity="0.43"/>
<path d="M32.5418 10.0066V25.4661H5.26416V10.0066H32.5418ZM9.05429 21.7503V19.743H7.04766V21.7503H9.05429ZM9.05429 18.0338V16.1016H7.04766V18.0338H9.05429ZM9.05429 14.3173V12.3107H7.04766V14.3173H9.05429Z" fill="#F2B200"/>
<path d="M39.3798 34.6827H36.0352V28.8115H42.7244V34.6827H39.3798Z" fill="#F2B200"/>
<path d="M39.3049 22.1223V22.4942H38.8594H37.6709L37.8189 20.71L39.3049 22.1223Z" fill="white"/>
<path d="M39.3047 22.1223L40.9402 20.71L41.0146 22.4942H39.8997H39.3047V22.1223Z" fill="white"/>
<path d="M39.8999 22.4941V23.6083H38.8594V22.4941H39.3049H39.8999Z" fill="white"/>
<path d="M39.8998 23.6084L40.2716 27.548H38.3394L38.8593 23.6084H39.8998Z" fill="white"/>
<path d="M42.7248 28.8116H36.0355H34.3257V22.0472L37.8191 20.71L37.671 22.4942H38.8596V23.6083L38.3397 27.548H40.2719L39.9001 23.6083V22.4942H41.0149L40.9406 20.71L44.4339 22.0472V28.8116H42.7248Z" fill="#F2B200"/>
<path d="M23.622 40.7033H15.4468V37.6554L17.8989 36.7637L19.5344 37.9537L21.1699 36.7637L23.622 37.6554V40.7033Z" fill="#F2B200"/>
<path d="M34.0278 40.7033H25.8525V37.6554L28.3054 36.7637L29.9394 37.9537L31.5749 36.7637L34.0278 37.6554V40.7033Z" fill="#F2B200"/>
<path d="M13.5137 40.7033H5.41211V37.6554L7.79062 36.7637L9.42611 37.9537L11.1352 36.7637L13.5137 37.6554V40.7033Z" fill="#F2B200"/>
<path d="M11.5076 33.1221C11.5076 34.1626 10.7646 36.0205 9.501 36.0205C8.23738 36.0205 7.49365 34.1626 7.49365 33.1221C7.49365 32.0065 8.38539 31.1147 9.501 31.1147C10.6159 31.1147 11.5076 32.0065 11.5076 33.1221Z" fill="white"/>
<path d="M21.6155 33.1221C21.6155 34.1626 20.8726 36.0205 19.6089 36.0205C18.3453 36.0205 17.6016 34.1626 17.6016 33.1221C17.6016 32.0065 18.4933 31.1147 19.6089 31.1147C20.6494 31.1147 21.6155 32.0065 21.6155 33.1221Z" fill="white"/>
<path d="M32.0213 33.1221C32.0213 34.1626 31.2783 36.0205 30.0147 36.0205C28.7511 36.0205 28.0073 34.1626 28.0073 33.1221C28.0073 32.0065 28.8991 31.1147 30.0147 31.1147C31.1295 31.1147 32.0213 32.0065 32.0213 33.1221Z" fill="white"/>
<path d="M42.0562 16.2504C42.0562 17.662 41.0893 20.19 39.3058 20.19C37.5967 20.19 36.5562 17.662 36.5562 16.2504C36.5562 14.7629 37.7454 13.5 39.3058 13.5C40.8662 13.5744 42.0562 14.7629 42.0562 16.2504Z" fill="white"/>
<path d="M9.05448 12.3108H7.04785V14.3174H9.05448V12.3108Z" fill="white"/>
<path d="M9.05448 16.0271H7.04785V17.9593H9.05448V16.0271Z" fill="white"/>
<path d="M9.05448 19.8181H7.04785V21.8247H9.05448V19.8181Z" fill="white"/>
<path d="M25.1837 16.2502L25.7787 18.7023L22.8796 19.6692C22.8796 19.5948 22.8052 19.5204 22.8052 19.4461C22.4341 17.8106 23.4002 16.1758 25.035 15.804L25.1837 16.2502Z" fill="white"/>
<path d="M30.4605 18.6281C30.9804 20.5603 29.8655 22.5677 27.8589 23.0883C25.9267 23.6082 23.92 22.419 23.3994 20.4867L26.8928 19.5198L26.5953 18.405L25.9266 15.9521C27.934 15.5066 29.9399 16.6958 30.4605 18.6281Z" fill="white"/>
<path d="M32.6153 25.5405C33.0608 25.5405 33.4327 25.9124 33.4327 26.3579C33.4327 26.8034 33.0608 27.1753 32.6153 27.1753H5.18897C4.74346 27.1753 4.37158 26.8034 4.37158 26.3579C4.37158 25.9124 4.74346 25.5405 5.18897 25.5405H5.33772H32.5409H32.6153Z" fill="white"/>
<path d="M32.6152 8.29688C33.0607 8.29688 33.4326 8.66876 33.4326 9.11427C33.4326 9.55977 33.0607 9.93163 32.6152 9.93163H32.4672H5.26399H5.11524C4.669 9.93163 4.29785 9.55977 4.29785 9.11427C4.29785 8.66876 4.669 8.29688 5.11524 8.29688C5.18962 8.29688 32.6152 8.29688 32.6152 8.29688Z" fill="white"/>
<path d="M13.5141 41.0001H5.41247C5.26372 41.0001 5.11572 40.8521 5.11572 40.7033V37.7306C5.11572 37.5818 5.1901 37.4331 5.33885 37.4331L7.79172 36.4677C7.86609 36.3926 8.01483 36.4677 8.08921 36.5413L9.57596 37.5818L11.0627 36.5413C11.1371 36.4677 11.2858 36.4677 11.3595 36.4677L13.8123 37.4331C13.9611 37.5082 14.0355 37.5818 14.0355 37.7306V40.7033C13.886 40.8521 13.7372 41.0001 13.5141 41.0001ZM5.70998 40.3314H13.2166V37.8786L11.1356 37.0619L9.64958 38.1768C9.50083 38.2512 9.35211 38.2512 9.27773 38.1768L7.79098 37.0619L5.78435 37.8786L5.70998 40.3314Z" fill="#E04C00"/>
<path d="M12.1762 41H6.75062C6.60187 41 6.45312 40.852 6.45312 40.7032V38.8454C6.45312 38.6966 6.60187 38.5486 6.75062 38.5486C6.89936 38.5486 7.04811 38.6966 7.04811 38.8454V40.4065H11.8051V38.8454C11.8051 38.6966 11.9539 38.5486 12.1026 38.5486C12.2514 38.5486 12.4001 38.6966 12.4001 38.8454V40.7032C12.4737 40.852 12.3257 41 12.1762 41Z" fill="#E04C00"/>
<path d="M9.50104 36.3924C7.93992 36.3924 7.12256 34.3114 7.12256 33.1229C7.12256 31.8592 8.16304 30.7444 9.50104 30.7444C10.7647 30.7444 11.8795 31.7849 11.8795 33.1229C11.8795 34.3106 11.0622 36.3924 9.50104 36.3924ZM9.50104 31.4866C8.60929 31.4866 7.79118 32.2296 7.79118 33.1958C7.79118 34.0875 8.46054 35.7974 9.50104 35.7974C10.5415 35.7974 11.2102 34.0875 11.2102 33.1958C11.2102 32.2296 10.3928 31.4866 9.50104 31.4866Z" fill="#E04C00"/>
<path d="M23.6224 41.0001H15.4464C15.2977 41.0001 15.1489 40.8521 15.1489 40.7033V37.7306C15.1489 37.5818 15.2233 37.4331 15.3721 37.4331L17.8249 36.4677C17.8993 36.3926 18.048 36.4677 18.1217 36.5413L19.6084 37.5818L21.0944 36.5413C21.1688 36.4677 21.3176 36.4677 21.3919 36.4677L23.8448 37.4331C23.9935 37.5082 24.0679 37.5818 24.0679 37.7306V40.7033C23.9199 40.8521 23.7719 41.0001 23.6224 41.0001ZM15.7446 40.3314H23.2513V37.8786L21.1703 37.0619L19.6835 38.1768C19.5348 38.2512 19.3868 38.2512 19.3124 38.1768L17.8264 37.0619L15.819 37.8786L15.7446 40.3314Z" fill="#E04C00"/>
<path d="M22.2104 41H16.7848C16.636 41 16.4873 40.852 16.4873 40.7032V38.8454C16.4873 38.6966 16.636 38.5486 16.7848 38.5486C16.9335 38.5486 17.0816 38.6966 17.0816 38.8454V40.4065H21.8386V38.8454C21.8386 38.6966 21.9873 38.5486 22.136 38.5486C22.2848 38.5486 22.4336 38.6966 22.4336 38.8454V40.7032C22.5816 40.852 22.4336 41 22.2104 41Z" fill="#E04C00"/>
<path d="M19.5348 36.3924C17.9736 36.3924 17.1562 34.3114 17.1562 33.1229C17.1562 31.8592 18.1968 30.7444 19.5348 30.7444C20.7984 30.7444 21.9133 31.7849 21.9133 33.1229C21.9133 34.3106 21.0959 36.3924 19.5348 36.3924ZM19.5348 31.4866C18.643 31.4866 17.8256 32.2296 17.8256 33.1958C17.8256 34.0875 18.4943 35.7974 19.5348 35.7974C20.5753 35.7974 21.2439 34.0875 21.2439 33.1958C21.2439 32.2296 20.5009 31.4866 19.5348 31.4866Z" fill="#E04C00"/>
<path d="M34.0282 41.0001H25.8522C25.7035 41.0001 25.5547 40.8521 25.5547 40.7033V37.7306C25.5547 37.5818 25.6298 37.4331 25.7786 37.4331L28.2307 36.4677C28.3058 36.3926 28.4538 36.4677 28.5282 36.5413L30.0142 37.5818L31.5009 36.5413C31.5753 36.4677 31.7241 36.4677 31.7977 36.4677L34.2506 37.4331C34.3993 37.5082 34.4737 37.5818 34.4737 37.7306V40.7033C34.3257 40.8521 34.1769 41.0001 34.0282 41.0001ZM26.2248 40.3314H33.7314V37.8786L31.6504 37.0619L30.1644 38.1768C30.0157 38.2512 29.8669 38.2512 29.7925 38.1768L28.3058 37.0619L26.2248 37.8786V40.3314Z" fill="#E04C00"/>
<path d="M32.6154 41H27.1898C27.0418 41 26.8931 40.852 26.8931 40.7032V38.8454C26.8931 38.6966 27.0418 38.5486 27.1898 38.5486C27.3386 38.5486 27.4873 38.6966 27.4873 38.8454V40.4065H32.2443V38.8454C32.2443 38.6966 32.3923 38.5486 32.5411 38.5486C32.6898 38.5486 32.8378 38.6966 32.8378 38.8454V40.7032C32.9873 40.852 32.8386 41 32.6154 41Z" fill="#E04C00"/>
<path d="M30.0147 36.3924C28.4536 36.3924 27.6362 34.3114 27.6362 33.1229C27.6362 31.8592 28.6767 30.7444 30.0147 30.7444C31.2783 30.7444 32.3925 31.7849 32.3925 33.1229C32.3188 34.3106 31.5751 36.3924 30.0147 36.3924ZM30.0147 31.4866C29.1222 31.4866 28.3056 32.2296 28.3056 33.1958C28.3056 34.0875 28.9742 35.7974 30.0147 35.7974C31.0552 35.7974 31.7239 34.0875 31.7239 33.1958C31.6502 32.2296 30.9065 31.4866 30.0147 31.4866Z" fill="#E04C00"/>
<path d="M5.26429 25.8388C5.11554 25.8388 4.9668 25.6901 4.9668 25.5413V10.0075C4.9668 9.8587 5.11554 9.70996 5.26429 9.70996C5.41304 9.70996 5.56178 9.8587 5.56178 10.0075V25.467C5.63541 25.6893 5.48667 25.8388 5.26429 25.8388Z" fill="#E04C00"/>
<path d="M32.5419 25.8388C32.3931 25.8388 32.2451 25.6901 32.2451 25.5413V10.0075C32.2451 9.8587 32.3931 9.70996 32.5419 9.70996C32.6906 9.70996 32.8386 9.8587 32.8386 10.0075V25.467C32.8386 25.6893 32.6906 25.8388 32.5419 25.8388Z" fill="#E04C00"/>
<path d="M32.6156 10.3777H5.18926C4.52063 10.3777 4 9.85787 4 9.18924C4 8.52061 4.5199 8 5.18926 8H32.6156C33.285 8 33.8049 8.52061 33.8049 9.18924C33.8049 9.85787 33.285 10.3777 32.6156 10.3777ZM5.18998 8.66862C4.89249 8.66862 4.67011 8.89175 4.67011 9.18924C4.67011 9.486 4.89322 9.70912 5.18998 9.70912H32.6164C32.9139 9.70912 33.137 9.486 33.137 9.18924C33.137 8.89175 32.9139 8.66862 32.6164 8.66862H5.18998Z" fill="#E04C00"/>
<path d="M32.6156 27.5477H5.18926C4.52063 27.5477 4 27.0271 4 26.3585C4 25.6898 4.5199 25.1692 5.18926 25.1692H32.6156C33.285 25.1692 33.8049 25.6898 33.8049 26.3585C33.8049 27.0271 33.285 27.5477 32.6156 27.5477ZM5.18998 25.8386C4.89249 25.8386 4.67011 26.0617 4.67011 26.3585C4.67011 26.6559 4.89322 26.8791 5.18998 26.8791H32.6164C32.9139 26.8791 33.137 26.6559 33.137 26.3585C33.137 26.0617 32.9139 25.8386 32.6164 25.8386H5.18998Z" fill="#E04C00"/>
<path d="M26.9668 23.5345C25.1833 23.5345 23.6222 22.3453 23.1016 20.561C23.1016 20.4866 23.1016 20.413 23.1016 20.3379C23.1759 20.2635 23.2503 20.1899 23.3247 20.1899L26.5206 19.3725L25.7032 16.1759C25.7032 16.1015 25.7032 16.0279 25.7032 15.9528C25.7783 15.8784 25.8519 15.804 25.9263 15.804C26.2982 15.7297 26.595 15.656 26.9668 15.656C28.7511 15.656 30.3114 16.8445 30.8321 18.6288C31.1288 19.6693 30.9801 20.7098 30.4602 21.6766C29.9396 22.5684 29.0478 23.237 28.0817 23.5345C27.6354 23.4594 27.2651 23.5345 26.9668 23.5345ZM23.8453 20.7098C24.3659 21.9734 25.5544 22.8651 26.8932 22.8651C27.1899 22.8651 27.4882 22.7908 27.7849 22.7171C28.6023 22.494 29.346 21.9734 29.7923 21.156C30.2378 20.413 30.3873 19.5205 30.0891 18.6288C29.7172 17.2164 28.3799 16.1759 26.8932 16.1759C26.7444 16.1759 26.5213 16.1759 26.3726 16.251L27.1899 19.4469C27.265 19.5956 27.1156 19.8188 26.9668 19.8924L23.8453 20.7098Z" fill="#E04C00"/>
<path d="M22.9534 19.9661C22.879 19.9661 22.879 19.9661 22.8046 19.9661C22.7303 19.8917 22.6559 19.8181 22.6559 19.743C22.6559 19.6686 22.5815 19.595 22.5815 19.5198C22.3584 18.6281 22.5071 17.7363 22.9534 16.9926C23.3989 16.2496 24.1426 15.6553 25.0344 15.5066C25.1831 15.4322 25.4055 15.581 25.4055 15.7297L26.1485 18.6281C26.2236 18.7768 26.0742 19 25.9254 19L23.027 19.9661H22.9534ZM24.812 16.1752C24.2914 16.3983 23.7715 16.7702 23.474 17.2908C23.1021 17.8851 23.0285 18.5545 23.1021 19.2231L25.3319 18.4793L24.812 16.1752Z" fill="#E04C00"/>
<path d="M30.8322 13.1289H26.372C26.224 13.1289 26.0752 12.9802 26.0752 12.8314C26.0752 12.6827 26.224 12.5347 26.372 12.5347H30.8322C30.9802 12.5347 31.129 12.6827 31.129 12.8314C31.1297 12.9794 31.0553 13.1289 30.8322 13.1289Z" fill="#E04C00"/>
<path d="M9.05461 14.6148H7.04798C6.89923 14.6148 6.75049 14.4661 6.75049 14.3173V12.3107C6.75049 12.1619 6.89923 12.0132 7.04798 12.0132H9.05461C9.20336 12.0132 9.3521 12.1619 9.3521 12.3107V14.3173C9.3521 14.4661 9.20336 14.6148 9.05461 14.6148ZM7.41911 13.9462H8.75712V12.6082H7.41911V13.9462Z" fill="#E04C00"/>
<path d="M18.9405 13.0537H10.5421C10.3934 13.0537 10.2446 12.9057 10.2446 12.757C10.2446 12.6082 10.3934 12.4595 10.5421 12.4595H18.9405C19.0892 12.4595 19.238 12.6082 19.238 12.757C19.2373 12.9057 19.0892 13.0537 18.9405 13.0537Z" fill="#E04C00"/>
<path d="M18.9405 14.2429H10.5421C10.3934 14.2429 10.2446 14.0942 10.2446 13.9462C10.2446 13.7974 10.3934 13.6487 10.5421 13.6487H18.9405C19.0892 13.6487 19.238 13.7974 19.238 13.9462C19.2373 14.0942 19.0892 14.2429 18.9405 14.2429Z" fill="#E04C00"/>
<path d="M9.05461 18.3312H7.04798C6.89923 18.3312 6.75049 18.1824 6.75049 18.0337V16.1014C6.75049 15.9527 6.89923 15.804 7.04798 15.804H9.05461C9.20336 15.804 9.3521 15.9527 9.3521 16.1014V18.0337C9.3521 18.1824 9.20336 18.3312 9.05461 18.3312ZM7.41911 17.6618H8.75712V16.3246H7.41911V17.6618Z" fill="#E04C00"/>
<path d="M18.9405 16.7703H10.5421C10.3934 16.7703 10.2446 16.6215 10.2446 16.4735C10.2446 16.3248 10.3934 16.176 10.5421 16.176H18.9405C19.0892 16.176 19.238 16.3248 19.238 16.4735C19.2373 16.6215 19.0892 16.7703 18.9405 16.7703Z" fill="#E04C00"/>
<path d="M18.9405 17.9595H10.5421C10.3934 17.9595 10.2446 17.8108 10.2446 17.662C10.2446 17.514 10.3934 17.3652 10.5421 17.3652H18.9405C19.0892 17.3652 19.238 17.514 19.238 17.662C19.2373 17.8108 19.0892 17.9595 18.9405 17.9595Z" fill="#E04C00"/>
<path d="M9.05461 22.1224H7.04798C6.89923 22.1224 6.75049 21.9736 6.75049 21.8249V19.8182C6.75049 19.6695 6.89923 19.5208 7.04798 19.5208H9.05461C9.20336 19.5208 9.3521 19.6695 9.3521 19.8182V21.8249C9.3521 21.9729 9.20336 22.1224 9.05461 22.1224ZM7.41911 21.453H8.75712V20.115H7.41911V21.453Z" fill="#E04C00"/>
<path d="M18.9405 20.4866H10.5421C10.3934 20.4866 10.2446 20.3378 10.2446 20.1898C10.2446 20.0411 10.3934 19.8923 10.5421 19.8923H18.9405C19.0892 19.8923 19.238 20.0411 19.238 20.1898C19.2373 20.3378 19.0892 20.4866 18.9405 20.4866Z" fill="#E04C00"/>
<path d="M18.9405 21.6758H10.5421C10.3934 21.6758 10.2446 21.5271 10.2446 21.3783C10.2446 21.2303 10.3934 21.0815 10.5421 21.0815H18.9405C19.0892 21.0815 19.238 21.2303 19.238 21.3783C19.2373 21.5271 19.0892 21.6758 18.9405 21.6758Z" fill="#E04C00"/>
<path d="M39.3799 20.561C37.3725 20.561 36.332 17.737 36.332 16.2502C36.332 14.5404 37.67 13.2024 39.3799 13.2024C41.0898 13.2024 42.427 14.5396 42.427 16.2502C42.4263 17.8106 41.3858 20.561 39.3799 20.561ZM39.3799 13.871C38.0419 13.871 37.0014 14.9115 37.0014 16.2495C37.0014 17.5131 37.8188 19.8909 39.3799 19.8909C40.9403 19.8909 41.7577 17.5131 41.7577 16.2495C41.7577 14.9866 40.6435 13.871 39.3799 13.871Z" fill="#E04C00"/>
<path d="M38.6361 16.3984C38.5617 16.3984 38.488 16.3984 38.3393 16.3984C37.8938 16.324 37.5956 16.1016 37.3724 15.7297C37.2981 15.581 37.3724 15.3579 37.5212 15.2842C37.6699 15.2098 37.8931 15.2842 37.9667 15.433C38.1154 15.6561 38.2635 15.7297 38.4122 15.7297C38.7097 15.8041 38.9328 15.6553 39.0808 15.581C39.4527 15.2098 39.6758 14.9867 39.9733 15.1355C40.1213 15.2106 40.1213 15.2842 40.1213 15.3586C40.4188 15.2849 40.7163 15.2849 40.9387 15.3586C41.0875 15.4337 41.1618 15.5817 41.2362 15.7304C41.3106 15.8792 41.1611 16.1023 41.0131 16.176C40.8643 16.2511 40.7156 16.1016 40.6412 15.9528C40.5661 15.9528 40.4181 15.9528 40.1957 16.0279C39.9726 16.1023 39.7502 16.1023 39.6751 15.9528C39.6751 15.9528 39.6751 15.9528 39.6007 16.0279C39.3798 16.324 39.0079 16.3984 38.6361 16.3984Z" fill="#E04C00"/>
<path d="M40.7922 17.514C40.7171 17.514 40.6434 17.514 40.569 17.4389C40.4939 17.4389 40.3452 17.4389 40.1972 17.514C40.0484 17.5884 39.8253 17.514 39.7517 17.3652C39.6766 17.2165 39.7517 16.9934 39.8997 16.9197C40.0484 16.8446 40.6434 16.6222 41.0153 16.9934C41.1633 17.1421 41.1633 17.3652 41.0153 17.4389C41.0145 17.514 40.9402 17.514 40.7922 17.514Z" fill="#E04C00"/>
<path d="M37.8933 17.5138C37.8182 17.5138 37.7445 17.5138 37.6702 17.4387C37.5214 17.2907 37.5214 17.0676 37.6702 16.9932C38.0413 16.6213 38.7107 16.9195 38.785 16.9195C38.9338 16.9932 39.0082 17.2163 38.9338 17.3651C38.8587 17.5138 38.6363 17.5882 38.4883 17.5138C38.4132 17.4387 38.1908 17.3651 38.1164 17.4387C38.0413 17.5138 37.9677 17.5138 37.8933 17.5138Z" fill="#E04C00"/>
<path d="M44.4336 29.1081H34.3253C34.1766 29.1081 34.0278 28.9601 34.0278 28.8113V22.047C34.0278 21.899 34.1022 21.7502 34.251 21.7502L37.7443 20.413C37.8931 20.3379 37.9675 20.413 38.1162 20.4873L39.3798 21.751L40.7922 20.4873C40.8658 20.413 41.0153 20.413 41.1633 20.413L44.6567 21.7502C44.8054 21.8246 44.8798 21.899 44.8798 22.047V28.8113C44.7311 28.9601 44.5823 29.1081 44.4336 29.1081ZM34.6965 28.4395H44.0617V22.2708L41.0146 21.0816L39.5278 22.4189C39.3791 22.5676 39.2303 22.5676 39.0816 22.4189L37.7443 21.0816L34.6965 22.2708V28.4395Z" fill="#E04C00"/>
<path d="M42.7245 35.0545H36.0353C35.8865 35.0545 35.7378 34.9058 35.7378 34.757V23.3859C35.7378 23.2371 35.8865 23.0891 36.0353 23.0891C36.1833 23.0891 36.3321 23.2371 36.3321 23.3859V34.3115H42.3527V23.3859C42.3527 23.2371 42.5014 23.0891 42.6502 23.0891C42.7982 23.0891 42.9469 23.2371 42.9469 23.3859V34.6834C43.0213 34.9057 42.8733 35.0545 42.7245 35.0545Z" fill="#E04C00"/>
<path d="M38.8593 22.7908H37.6708C37.5957 22.7908 37.522 22.7164 37.4477 22.7164C37.3726 22.6413 37.3726 22.5677 37.3726 22.4189L37.4477 20.6354C37.4477 20.4867 37.5957 20.3379 37.8188 20.3379C37.9676 20.3379 38.1163 20.4866 38.1163 20.7098L38.0412 22.1221H38.8586C39.0073 22.1221 39.1561 22.2709 39.1561 22.4189C39.1568 22.5677 39.0817 22.7908 38.8593 22.7908Z" fill="#E04C00"/>
<path d="M41.0148 22.7909H39.8256C39.6768 22.7909 39.5288 22.6421 39.5288 22.4941C39.5288 22.3453 39.6768 22.1966 39.8256 22.1966H40.6429L40.5686 20.7842C40.5686 20.6362 40.7166 20.4131 40.8653 20.4131C41.0141 20.4131 41.2372 20.5611 41.2372 20.7098L41.3116 22.4941C41.3116 22.5685 41.3116 22.6421 41.2372 22.7172C41.2379 22.7908 41.0892 22.7909 41.0148 22.7909Z" fill="#E04C00"/>
<path d="M39.9002 23.98C39.7522 23.98 39.6034 23.8313 39.6034 23.6825V22.8652H39.3059V23.6825C39.3059 23.8313 39.1579 23.98 39.0092 23.98C38.8604 23.98 38.7124 23.8313 38.7124 23.6825V22.494C38.7124 22.3453 38.8604 22.1965 39.0092 22.1965H39.976C40.124 22.1965 40.2728 22.3453 40.2728 22.494V23.6825C40.1977 23.8313 40.0489 23.98 39.9002 23.98Z" fill="#E04C00"/>
<path d="M40.2715 27.9197H38.3392C38.2641 27.9197 38.1161 27.8446 38.1161 27.7709C38.1161 27.6966 38.041 27.6222 38.041 27.4742L38.5616 23.5346C38.5616 23.3858 38.7104 23.2371 38.8584 23.2371H39.8253C39.974 23.2371 40.122 23.3858 40.122 23.5346L40.5683 27.4742C40.5683 27.5485 40.5683 27.6973 40.4932 27.6973C40.4939 27.8446 40.3459 27.9197 40.2715 27.9197ZM38.7111 27.2496H39.8996L39.5285 23.9801H39.1566L38.7111 27.2496Z" fill="#E04C00"/>
<path d="M39.38 35.0545C39.2313 35.0545 39.0825 34.9058 39.0825 34.757V31.338C39.0825 31.1893 39.2313 31.0413 39.38 31.0413C39.5288 31.0413 39.6768 31.1893 39.6768 31.338V34.757C39.6768 34.9058 39.5288 35.0545 39.38 35.0545Z" fill="#E04C00"/>
</svg>
